<svg width="464" height="101" viewBox="0 0 464 101" fill="none" xmlns="http://www.w3.org/2000/svg">
<path d="M17.2715 89.4219V98H16.1875V90.7754L14.002 91.5723V90.5938L17.1016 89.4219H17.2715ZM25.8379 95.6914C25.8379 96.2109 25.7168 96.6523 25.4746 97.0156C25.2363 97.375 24.9121 97.6484 24.502 97.8359C24.0957 98.0234 23.6367 98.1172 23.125 98.1172C22.6133 98.1172 22.1523 98.0234 21.7422 97.8359C21.332 97.6484 21.0078 97.375 20.7695 97.0156C20.5312 96.6523 20.4121 96.2109 20.4121 95.6914C20.4121 95.3516 20.4766 95.041 20.6055 94.7598C20.7383 94.4746 20.9238 94.2266 21.1621 94.0156C21.4043 93.8047 21.6895 93.6426 22.0176 93.5293C22.3496 93.4121 22.7148 93.3535 23.1133 93.3535C23.6367 93.3535 24.1035 93.4551 24.5137 93.6582C24.9238 93.8574 25.2461 94.1328 25.4805 94.4844C25.7188 94.8359 25.8379 95.2383 25.8379 95.6914ZM24.748 95.668C24.748 95.3516 24.6797 95.0723 24.543 94.8301C24.4062 94.584 24.2148 94.3926 23.9688 94.2559C23.7227 94.1191 23.4375 94.0508 23.1133 94.0508C22.7812 94.0508 22.4941 94.1191 22.252 94.2559C22.0137 94.3926 21.8281 94.584 21.6953 94.8301C21.5625 95.0723 21.4961 95.3516 21.4961 95.668C21.4961 95.9961 21.5605 96.2773 21.6895 96.5117C21.8223 96.7422 22.0098 96.9199 22.252 97.0449C22.498 97.166 22.7891 97.2266 23.125 97.2266C23.4609 97.2266 23.75 97.166 23.9922 97.0449C24.2344 96.9199 24.4199 96.7422 24.5488 96.5117C24.6816 96.2773 24.748 95.9961 24.748 95.668ZM25.6387 91.6895C25.6387 92.1035 25.5293 92.4766 25.3105 92.8086C25.0918 93.1406 24.793 93.4023 24.4141 93.5938C24.0352 93.7852 23.6055 93.8809 23.125 93.8809C22.6367 93.8809 22.2012 93.7852 21.8184 93.5938C21.4395 93.4023 21.1426 93.1406 20.9277 92.8086C20.7129 92.4766 20.6055 92.1035 20.6055 91.6895C20.6055 91.1934 20.7129 90.7715 20.9277 90.4238C21.1465 90.0762 21.4453 89.8105 21.8242 89.627C22.2031 89.4434 22.6348 89.3516 23.1191 89.3516C23.6074 89.3516 24.041 89.4434 24.4199 89.627C24.7988 89.8105 25.0957 90.0762 25.3105 90.4238C25.5293 90.7715 25.6387 91.1934 25.6387 91.6895ZM24.5547 91.707C24.5547 91.4219 24.4941 91.1699 24.373 90.9512C24.252 90.7324 24.084 90.5605 23.8691 90.4355C23.6543 90.3066 23.4043 90.2422 23.1191 90.2422C22.834 90.2422 22.584 90.3027 22.3691 90.4238C22.1582 90.541 21.9922 90.709 21.8711 90.9277C21.7539 91.1465 21.6953 91.4062 21.6953 91.707C21.6953 92 21.7539 92.2559 21.8711 92.4746C21.9922 92.6934 22.1602 92.8633 22.375 92.9844C22.5898 93.1055 22.8398 93.166 23.125 93.166C23.4102 93.166 23.6582 93.1055 23.8691 92.9844C24.084 92.8633 24.252 92.6934 24.373 92.4746C24.4941 92.2559 24.5547 92 24.5547 91.707ZM27.2793 97.4258C27.2793 97.2422 27.3359 97.0879 27.4492 96.9629C27.5664 96.834 27.7344 96.7695 27.9531 96.7695C28.1719 96.7695 28.3379 96.834 28.4512 96.9629C28.5684 97.0879 28.627 97.2422 28.627 97.4258C28.627 97.6055 28.5684 97.7578 28.4512 97.8828C28.3379 98.0078 28.1719 98.0703 27.9531 98.0703C27.7344 98.0703 27.5664 98.0078 27.4492 97.8828C27.3359 97.7578 27.2793 97.6055 27.2793 97.4258ZM27.2852 92.252C27.2852 92.0684 27.3418 91.9141 27.4551 91.7891C27.5723 91.6602 27.7402 91.5957 27.959 91.5957C28.1777 91.5957 28.3438 91.6602 28.457 91.7891C28.5742 91.9141 28.6328 92.0684 28.6328 92.252C28.6328 92.4316 28.5742 92.584 28.457 92.709C28.3438 92.834 28.1777 92.8965 27.959 92.8965C27.7402 92.8965 27.5723 92.834 27.4551 92.709C27.3418 92.584 27.2852 92.4316 27.2852 92.252ZM35.4707 93.0547V94.3555C35.4707 95.0547 35.4082 95.6445 35.2832 96.125C35.1582 96.6055 34.9785 96.9922 34.7441 97.2852C34.5098 97.5781 34.2266 97.791 33.8945 97.9238C33.5664 98.0527 33.1953 98.1172 32.7812 98.1172C32.4531 98.1172 32.1504 98.0762 31.873 97.9941C31.5957 97.9121 31.3457 97.7812 31.123 97.6016C30.9043 97.418 30.7168 97.1797 30.5605 96.8867C30.4043 96.5938 30.2852 96.2383 30.2031 95.8203C30.1211 95.4023 30.0801 94.9141 30.0801 94.3555V93.0547C30.0801 92.3555 30.1426 91.7695 30.2676 91.2969C30.3965 90.8242 30.5781 90.4453 30.8125 90.1602C31.0469 89.8711 31.3281 89.6641 31.6562 89.5391C31.9883 89.4141 32.3594 89.3516 32.7695 89.3516C33.1016 89.3516 33.4062 89.3926 33.6836 89.4746C33.9648 89.5527 34.2148 89.6797 34.4336 89.8555C34.6523 90.0273 34.8379 90.2578 34.9902 90.5469C35.1465 90.832 35.2656 91.1816 35.3477 91.5957C35.4297 92.0098 35.4707 92.4961 35.4707 93.0547ZM34.3809 94.5312V92.873C34.3809 92.4902 34.3574 92.1543 34.3105 91.8652C34.2676 91.5723 34.2031 91.3223 34.1172 91.1152C34.0312 90.9082 33.9219 90.7402 33.7891 90.6113C33.6602 90.4824 33.5098 90.3887 33.3379 90.3301C33.1699 90.2676 32.9805 90.2363 32.7695 90.2363C32.5117 90.2363 32.2832 90.2852 32.084 90.3828C31.8848 90.4766 31.7168 90.627 31.5801 90.834C31.4473 91.041 31.3457 91.3125 31.2754 91.6484C31.2051 91.9844 31.1699 92.3926 31.1699 92.873V94.5312C31.1699 94.9141 31.1914 95.252 31.2344 95.5449C31.2812 95.8379 31.3496 96.0918 31.4395 96.3066C31.5293 96.5176 31.6387 96.6914 31.7676 96.8281C31.8965 96.9648 32.0449 97.0664 32.2129 97.1328C32.3848 97.1953 32.5742 97.2266 32.7812 97.2266C33.0469 97.2266 33.2793 97.1758 33.4785 97.0742C33.6777 96.9727 33.8438 96.8145 33.9766 96.5996C34.1133 96.3809 34.2148 96.1016 34.2812 95.7617C34.3477 95.418 34.3809 95.0078 34.3809 94.5312ZM42.2207 93.0547V94.3555C42.2207 95.0547 42.1582 95.6445 42.0332 96.125C41.9082 96.6055 41.7285 96.9922 41.4941 97.2852C41.2598 97.5781 40.9766 97.791 40.6445 97.9238C40.3164 98.0527 39.9453 98.1172 39.5312 98.1172C39.2031 98.1172 38.9004 98.0762 38.623 97.9941C38.3457 97.9121 38.0957 97.7812 37.873 97.6016C37.6543 97.418 37.4668 97.1797 37.3105 96.8867C37.1543 96.5938 37.0352 96.2383 36.9531 95.8203C36.8711 95.4023 36.8301 94.9141 36.8301 94.3555V93.0547C36.8301 92.3555 36.8926 91.7695 37.0176 91.2969C37.1465 90.8242 37.3281 90.4453 37.5625 90.1602C37.7969 89.8711 38.0781 89.6641 38.4062 89.5391C38.7383 89.4141 39.1094 89.3516 39.5195 89.3516C39.8516 89.3516 40.1562 89.3926 40.4336 89.4746C40.7148 89.5527 40.9648 89.6797 41.1836 89.8555C41.4023 90.0273 41.5879 90.2578 41.7402 90.5469C41.8965 90.832 42.0156 91.1816 42.0977 91.5957C42.1797 92.0098 42.2207 92.4961 42.2207 93.0547ZM41.1309 94.5312V92.873C41.1309 92.4902 41.1074 92.1543 41.0605 91.8652C41.0176 91.5723 40.9531 91.3223 40.8672 91.1152C40.7812 90.9082 40.6719 90.7402 40.5391 90.6113C40.4102 90.4824 40.2598 90.3887 40.0879 90.3301C39.9199 90.2676 39.7305 90.2363 39.5195 90.2363C39.2617 90.2363 39.0332 90.2852 38.834 90.3828C38.6348 90.4766 38.4668 90.627 38.3301 90.834C38.1973 91.041 38.0957 91.3125 38.0254 91.6484C37.9551 91.9844 37.9199 92.3926 37.9199 92.873V94.5312C37.9199 94.9141 37.9414 95.252 37.9844 95.5449C38.0312 95.8379 38.0996 96.0918 38.1895 96.3066C38.2793 96.5176 38.3887 96.6914 38.5176 96.8281C38.6465 96.9648 38.7949 97.0664 38.9629 97.1328C39.1348 97.1953 39.3242 97.2266 39.5312 97.2266C39.7969 97.2266 40.0293 97.1758 40.2285 97.0742C40.4277 96.9727 40.5938 96.8145 40.7266 96.5996C40.8633 96.3809 40.9648 96.1016 41.0312 95.7617C41.0977 95.418 41.1309 95.0078 41.1309 94.5312Z" fill="#84858C"/>
<path d="M75.5573 89.4219V98H74.4733V90.7754L72.2877 91.5723V90.5938L75.3873 89.4219H75.5573ZM79.8229 97.0918H79.9342C80.5592 97.0918 81.067 97.0039 81.4576 96.8281C81.8483 96.6523 82.149 96.416 82.36 96.1191C82.5709 95.8223 82.7155 95.4883 82.7936 95.1172C82.8717 94.7422 82.9108 94.3574 82.9108 93.9629V92.6562C82.9108 92.2695 82.8658 91.9258 82.776 91.625C82.6901 91.3242 82.569 91.0723 82.4127 90.8691C82.2604 90.666 82.0865 90.5117 81.8912 90.4062C81.6959 90.3008 81.4889 90.248 81.2701 90.248C81.0201 90.248 80.7955 90.2988 80.5963 90.4004C80.401 90.498 80.235 90.6367 80.0983 90.8164C79.9655 90.9961 79.8639 91.207 79.7936 91.4492C79.7233 91.6914 79.6881 91.9551 79.6881 92.2402C79.6881 92.4941 79.7194 92.7402 79.7819 92.9785C79.8444 93.2168 79.9401 93.4316 80.069 93.623C80.1979 93.8145 80.358 93.9668 80.5494 94.0801C80.7448 94.1895 80.9733 94.2441 81.235 94.2441C81.4772 94.2441 81.7037 94.1973 81.9147 94.1035C82.1295 94.0059 82.319 93.875 82.483 93.7109C82.651 93.543 82.7838 93.3535 82.8815 93.1426C82.983 92.9316 83.0416 92.7109 83.0573 92.4805H83.5729C83.5729 92.8047 83.5084 93.125 83.3795 93.4414C83.2545 93.7539 83.0787 94.0391 82.8522 94.2969C82.6256 94.5547 82.36 94.7617 82.0553 94.918C81.7506 95.0703 81.4186 95.1465 81.0592 95.1465C80.6373 95.1465 80.2721 95.0645 79.9635 94.9004C79.6549 94.7363 79.401 94.5176 79.2018 94.2441C79.0065 93.9707 78.86 93.666 78.7623 93.3301C78.6686 92.9902 78.6217 92.6465 78.6217 92.2988C78.6217 91.8926 78.6783 91.5117 78.7916 91.1562C78.9049 90.8008 79.0729 90.4883 79.2955 90.2188C79.5182 89.9453 79.7936 89.7324 80.1217 89.5801C80.4537 89.4277 80.8365 89.3516 81.2701 89.3516C81.7584 89.3516 82.1744 89.4492 82.5182 89.6445C82.8619 89.8398 83.1412 90.1016 83.3561 90.4297C83.5748 90.7578 83.735 91.127 83.8365 91.5371C83.9381 91.9473 83.9889 92.3691 83.9889 92.8027V93.1953C83.9889 93.6367 83.9596 94.0859 83.901 94.543C83.8463 94.9961 83.7389 95.4297 83.5787 95.8438C83.4225 96.2578 83.194 96.6289 82.8932 96.957C82.5924 97.2812 82.1998 97.5391 81.7155 97.7305C81.235 97.918 80.6412 98.0117 79.9342 98.0117H79.8229V97.0918ZM85.5651 97.4258C85.5651 97.2422 85.6217 97.0879 85.735 96.9629C85.8522 96.834 86.0201 96.7695 86.2389 96.7695C86.4576 96.7695 86.6237 96.834 86.7369 96.9629C86.8541 97.0879 86.9127 97.2422 86.9127 97.4258C86.9127 97.6055 86.8541 97.7578 86.7369 97.8828C86.6237 98.0078 86.4576 98.0703 86.2389 98.0703C86.0201 98.0703 85.8522 98.0078 85.735 97.8828C85.6217 97.7578 85.5651 97.6055 85.5651 97.4258ZM85.5709 92.252C85.5709 92.0684 85.6276 91.9141 85.7408 91.7891C85.858 91.6602 86.026 91.5957 86.2448 91.5957C86.4635 91.5957 86.6295 91.6602 86.7428 91.7891C86.86 91.9141 86.9186 92.0684 86.9186 92.252C86.9186 92.4316 86.86 92.584 86.7428 92.709C86.6295 92.834 86.4635 92.8965 86.2448 92.8965C86.026 92.8965 85.858 92.834 85.7408 92.709C85.6276 92.584 85.5709 92.4316 85.5709 92.252ZM93.7565 93.0547V94.3555C93.7565 95.0547 93.694 95.6445 93.569 96.125C93.444 96.6055 93.2643 96.9922 93.0299 97.2852C92.7955 97.5781 92.5123 97.791 92.1803 97.9238C91.8522 98.0527 91.4811 98.1172 91.067 98.1172C90.7389 98.1172 90.4362 98.0762 90.1588 97.9941C89.8815 97.9121 89.6315 97.7812 89.4088 97.6016C89.1901 97.418 89.0026 97.1797 88.8463 96.8867C88.6901 96.5938 88.5709 96.2383 88.4889 95.8203C88.4069 95.4023 88.3658 94.9141 88.3658 94.3555V93.0547C88.3658 92.3555 88.4283 91.7695 88.5533 91.2969C88.6823 90.8242 88.8639 90.4453 89.0983 90.1602C89.3326 89.8711 89.6139 89.6641 89.942 89.5391C90.274 89.4141 90.6451 89.3516 91.0553 89.3516C91.3873 89.3516 91.692 89.3926 91.9694 89.4746C92.2506 89.5527 92.5006 89.6797 92.7194 89.8555C92.9381 90.0273 93.1237 90.2578 93.276 90.5469C93.4323 90.832 93.5514 91.1816 93.6334 91.5957C93.7155 92.0098 93.7565 92.4961 93.7565 93.0547ZM92.6666 94.5312V92.873C92.6666 92.4902 92.6432 92.1543 92.5963 91.8652C92.5533 91.5723 92.4889 91.3223 92.403 91.1152C92.317 90.9082 92.2076 90.7402 92.0748 90.6113C91.9459 90.4824 91.7955 90.3887 91.6237 90.3301C91.4557 90.2676 91.2662 90.2363 91.0553 90.2363C90.7975 90.2363 90.569 90.2852 90.3698 90.3828C90.1705 90.4766 90.0026 90.627 89.8658 90.834C89.733 91.041 89.6315 91.3125 89.5612 91.6484C89.4908 91.9844 89.4557 92.3926 89.4557 92.873V94.5312C89.4557 94.9141 89.4772 95.252 89.5201 95.5449C89.567 95.8379 89.6354 96.0918 89.7252 96.3066C89.8151 96.5176 89.9244 96.6914 90.0533 96.8281C90.1823 96.9648 90.3307 97.0664 90.4987 97.1328C90.6705 97.1953 90.86 97.2266 91.067 97.2266C91.3326 97.2266 91.5651 97.1758 91.7643 97.0742C91.9635 96.9727 92.1295 96.8145 92.2623 96.5996C92.399 96.3809 92.5006 96.1016 92.567 95.7617C92.6334 95.418 92.6666 95.0078 92.6666 94.5312ZM100.506 93.0547V94.3555C100.506 95.0547 100.444 95.6445 100.319 96.125C100.194 96.6055 100.014 96.9922 99.7799 97.2852C99.5455 97.5781 99.2623 97.791 98.9303 97.9238C98.6022 98.0527 98.2311 98.1172 97.817 98.1172C97.4889 98.1172 97.1862 98.0762 96.9088 97.9941C96.6315 97.9121 96.3815 97.7812 96.1588 97.6016C95.9401 97.418 95.7526 97.1797 95.5963 96.8867C95.4401 96.5938 95.3209 96.2383 95.2389 95.8203C95.1569 95.4023 95.1158 94.9141 95.1158 94.3555V93.0547C95.1158 92.3555 95.1783 91.7695 95.3033 91.2969C95.4323 90.8242 95.6139 90.4453 95.8483 90.1602C96.0826 89.8711 96.3639 89.6641 96.692 89.5391C97.024 89.4141 97.3951 89.3516 97.8053 89.3516C98.1373 89.3516 98.442 89.3926 98.7194 89.4746C99.0006 89.5527 99.2506 89.6797 99.4694 89.8555C99.6881 90.0273 99.8737 90.2578 100.026 90.5469C100.182 90.832 100.301 91.1816 100.383 91.5957C100.465 92.0098 100.506 92.4961 100.506 93.0547ZM99.4166 94.5312V92.873C99.4166 92.4902 99.3932 92.1543 99.3463 91.8652C99.3033 91.5723 99.2389 91.3223 99.153 91.1152C99.067 90.9082 98.9576 90.7402 98.8248 90.6113C98.6959 90.4824 98.5455 90.3887 98.3737 90.3301C98.2057 90.2676 98.0162 90.2363 97.8053 90.2363C97.5475 90.2363 97.319 90.2852 97.1198 90.3828C96.9205 90.4766 96.7526 90.627 96.6158 90.834C96.483 91.041 96.3815 91.3125 96.3112 91.6484C96.2408 91.9844 96.2057 92.3926 96.2057 92.873V94.5312C96.2057 94.9141 96.2272 95.252 96.2701 95.5449C96.317 95.8379 96.3854 96.0918 96.4752 96.3066C96.5651 96.5176 96.6744 96.6914 96.8033 96.8281C96.9323 96.9648 97.0807 97.0664 97.2487 97.1328C97.4205 97.1953 97.61 97.2266 97.817 97.2266C98.0826 97.2266 98.3151 97.1758 98.5143 97.0742C98.7135 96.9727 98.8795 96.8145 99.0123 96.5996C99.149 96.3809 99.2506 96.1016 99.317 95.7617C99.3834 95.418 99.4166 95.0078 99.4166 94.5312Z" fill="#84858C"/>
<path d="M135.87 97.1094V98H130.286V97.2207L133.081 94.1094C133.425 93.7266 133.691 93.4023 133.878 93.1367C134.069 92.8672 134.202 92.627 134.276 92.416C134.355 92.2012 134.394 91.9824 134.394 91.7598C134.394 91.4785 134.335 91.2246 134.218 90.998C134.105 90.7676 133.937 90.584 133.714 90.4473C133.491 90.3105 133.222 90.2422 132.905 90.2422C132.526 90.2422 132.21 90.3164 131.956 90.4648C131.706 90.6094 131.519 90.8125 131.394 91.0742C131.269 91.3359 131.206 91.6367 131.206 91.9766H130.122C130.122 91.4961 130.228 91.0566 130.439 90.6582C130.65 90.2598 130.962 89.9434 131.376 89.709C131.79 89.4707 132.3 89.3516 132.905 89.3516C133.444 89.3516 133.905 89.4473 134.288 89.6387C134.671 89.8262 134.964 90.0918 135.167 90.4355C135.374 90.7754 135.478 91.1738 135.478 91.6309C135.478 91.8809 135.435 92.1348 135.349 92.3926C135.267 92.6465 135.151 92.9004 135.003 93.1543C134.859 93.4082 134.689 93.6582 134.493 93.9043C134.302 94.1504 134.097 94.3926 133.878 94.6309L131.593 97.1094H135.87ZM142.386 93.0547V94.3555C142.386 95.0547 142.323 95.6445 142.198 96.125C142.073 96.6055 141.894 96.9922 141.659 97.2852C141.425 97.5781 141.142 97.791 140.81 97.9238C140.482 98.0527 140.11 98.1172 139.696 98.1172C139.368 98.1172 139.066 98.0762 138.788 97.9941C138.511 97.9121 138.261 97.7812 138.038 97.6016C137.819 97.418 137.632 97.1797 137.476 96.8867C137.319 96.5938 137.2 96.2383 137.118 95.8203C137.036 95.4023 136.995 94.9141 136.995 94.3555V93.0547C136.995 92.3555 137.058 91.7695 137.183 91.2969C137.312 90.8242 137.493 90.4453 137.728 90.1602C137.962 89.8711 138.243 89.6641 138.571 89.5391C138.903 89.4141 139.275 89.3516 139.685 89.3516C140.017 89.3516 140.321 89.3926 140.599 89.4746C140.88 89.5527 141.13 89.6797 141.349 89.8555C141.568 90.0273 141.753 90.2578 141.905 90.5469C142.062 90.832 142.181 91.1816 142.263 91.5957C142.345 92.0098 142.386 92.4961 142.386 93.0547ZM141.296 94.5312V92.873C141.296 92.4902 141.273 92.1543 141.226 91.8652C141.183 91.5723 141.118 91.3223 141.032 91.1152C140.946 90.9082 140.837 90.7402 140.704 90.6113C140.575 90.4824 140.425 90.3887 140.253 90.3301C140.085 90.2676 139.896 90.2363 139.685 90.2363C139.427 90.2363 139.198 90.2852 138.999 90.3828C138.8 90.4766 138.632 90.627 138.495 90.834C138.362 91.041 138.261 91.3125 138.191 91.6484C138.12 91.9844 138.085 92.3926 138.085 92.873V94.5312C138.085 94.9141 138.107 95.252 138.15 95.5449C138.196 95.8379 138.265 96.0918 138.355 96.3066C138.444 96.5176 138.554 96.6914 138.683 96.8281C138.812 96.9648 138.96 97.0664 139.128 97.1328C139.3 97.1953 139.489 97.2266 139.696 97.2266C139.962 97.2266 140.194 97.1758 140.394 97.0742C140.593 96.9727 140.759 96.8145 140.892 96.5996C141.028 96.3809 141.13 96.1016 141.196 95.7617C141.263 95.418 141.296 95.0078 141.296 94.5312ZM143.851 97.4258C143.851 97.2422 143.907 97.0879 144.021 96.9629C144.138 96.834 144.306 96.7695 144.525 96.7695C144.743 96.7695 144.909 96.834 145.023 96.9629C145.14 97.0879 145.198 97.2422 145.198 97.4258C145.198 97.6055 145.14 97.7578 145.023 97.8828C144.909 98.0078 144.743 98.0703 144.525 98.0703C144.306 98.0703 144.138 98.0078 144.021 97.8828C143.907 97.7578 143.851 97.6055 143.851 97.4258ZM143.857 92.252C143.857 92.0684 143.913 91.9141 144.026 91.7891C144.144 91.6602 144.312 91.5957 144.53 91.5957C144.749 91.5957 144.915 91.6602 145.028 91.7891C145.146 91.9141 145.204 92.0684 145.204 92.252C145.204 92.4316 145.146 92.584 145.028 92.709C144.915 92.834 144.749 92.8965 144.53 92.8965C144.312 92.8965 144.144 92.834 144.026 92.709C143.913 92.584 143.857 92.4316 143.857 92.252ZM152.042 93.0547V94.3555C152.042 95.0547 151.98 95.6445 151.855 96.125C151.73 96.6055 151.55 96.9922 151.316 97.2852C151.081 97.5781 150.798 97.791 150.466 97.9238C150.138 98.0527 149.767 98.1172 149.353 98.1172C149.025 98.1172 148.722 98.0762 148.444 97.9941C148.167 97.9121 147.917 97.7812 147.694 97.6016C147.476 97.418 147.288 97.1797 147.132 96.8867C146.976 96.5938 146.857 96.2383 146.775 95.8203C146.693 95.4023 146.651 94.9141 146.651 94.3555V93.0547C146.651 92.3555 146.714 91.7695 146.839 91.2969C146.968 90.8242 147.15 90.4453 147.384 90.1602C147.618 89.8711 147.9 89.6641 148.228 89.5391C148.56 89.4141 148.931 89.3516 149.341 89.3516C149.673 89.3516 149.978 89.3926 150.255 89.4746C150.536 89.5527 150.786 89.6797 151.005 89.8555C151.224 90.0273 151.409 90.2578 151.562 90.5469C151.718 90.832 151.837 91.1816 151.919 91.5957C152.001 92.0098 152.042 92.4961 152.042 93.0547ZM150.952 94.5312V92.873C150.952 92.4902 150.929 92.1543 150.882 91.8652C150.839 91.5723 150.775 91.3223 150.689 91.1152C150.603 90.9082 150.493 90.7402 150.36 90.6113C150.232 90.4824 150.081 90.3887 149.909 90.3301C149.741 90.2676 149.552 90.2363 149.341 90.2363C149.083 90.2363 148.855 90.2852 148.655 90.3828C148.456 90.4766 148.288 90.627 148.151 90.834C148.019 91.041 147.917 91.3125 147.847 91.6484C147.776 91.9844 147.741 92.3926 147.741 92.873V94.5312C147.741 94.9141 147.763 95.252 147.806 95.5449C147.853 95.8379 147.921 96.0918 148.011 96.3066C148.101 96.5176 148.21 96.6914 148.339 96.8281C148.468 96.9648 148.616 97.0664 148.784 97.1328C148.956 97.1953 149.146 97.2266 149.353 97.2266C149.618 97.2266 149.851 97.1758 150.05 97.0742C150.249 96.9727 150.415 96.8145 150.548 96.5996C150.685 96.3809 150.786 96.1016 150.853 95.7617C150.919 95.418 150.952 95.0078 150.952 94.5312ZM158.792 93.0547V94.3555C158.792 95.0547 158.73 95.6445 158.605 96.125C158.48 96.6055 158.3 96.9922 158.066 97.2852C157.831 97.5781 157.548 97.791 157.216 97.9238C156.888 98.0527 156.517 98.1172 156.103 98.1172C155.775 98.1172 155.472 98.0762 155.194 97.9941C154.917 97.9121 154.667 97.7812 154.444 97.6016C154.226 97.418 154.038 97.1797 153.882 96.8867C153.726 96.5938 153.607 96.2383 153.525 95.8203C153.443 95.4023 153.401 94.9141 153.401 94.3555V93.0547C153.401 92.3555 153.464 91.7695 153.589 91.2969C153.718 90.8242 153.9 90.4453 154.134 90.1602C154.368 89.8711 154.65 89.6641 154.978 89.5391C155.31 89.4141 155.681 89.3516 156.091 89.3516C156.423 89.3516 156.728 89.3926 157.005 89.4746C157.286 89.5527 157.536 89.6797 157.755 89.8555C157.974 90.0273 158.159 90.2578 158.312 90.5469C158.468 90.832 158.587 91.1816 158.669 91.5957C158.751 92.0098 158.792 92.4961 158.792 93.0547ZM157.702 94.5312V92.873C157.702 92.4902 157.679 92.1543 157.632 91.8652C157.589 91.5723 157.525 91.3223 157.439 91.1152C157.353 90.9082 157.243 90.7402 157.11 90.6113C156.982 90.4824 156.831 90.3887 156.659 90.3301C156.491 90.2676 156.302 90.2363 156.091 90.2363C155.833 90.2363 155.605 90.2852 155.405 90.3828C155.206 90.4766 155.038 90.627 154.901 90.834C154.769 91.041 154.667 91.3125 154.597 91.6484C154.526 91.9844 154.491 92.3926 154.491 92.873V94.5312C154.491 94.9141 154.513 95.252 154.556 95.5449C154.603 95.8379 154.671 96.0918 154.761 96.3066C154.851 96.5176 154.96 96.6914 155.089 96.8281C155.218 96.9648 155.366 97.0664 155.534 97.1328C155.706 97.1953 155.896 97.2266 156.103 97.2266C156.368 97.2266 156.601 97.1758 156.8 97.0742C156.999 96.9727 157.165 96.8145 157.298 96.5996C157.435 96.3809 157.536 96.1016 157.603 95.7617C157.669 95.418 157.702 95.0078 157.702 94.5312Z" fill="#84858C"/>
<path d="M194.156 97.1094V98H188.572V97.2207L191.367 94.1094C191.711 93.7266 191.976 93.4023 192.164 93.1367C192.355 92.8672 192.488 92.627 192.562 92.416C192.64 92.2012 192.679 91.9824 192.679 91.7598C192.679 91.4785 192.621 91.2246 192.504 90.998C192.39 90.7676 192.222 90.584 192 90.4473C191.777 90.3105 191.508 90.2422 191.191 90.2422C190.812 90.2422 190.496 90.3164 190.242 90.4648C189.992 90.6094 189.804 90.8125 189.679 91.0742C189.554 91.3359 189.492 91.6367 189.492 91.9766H188.408C188.408 91.4961 188.513 91.0566 188.724 90.6582C188.935 90.2598 189.248 89.9434 189.662 89.709C190.076 89.4707 190.586 89.3516 191.191 89.3516C191.73 89.3516 192.191 89.4473 192.574 89.6387C192.957 89.8262 193.25 90.0918 193.453 90.4355C193.66 90.7754 193.763 91.1738 193.763 91.6309C193.763 91.8809 193.72 92.1348 193.635 92.3926C193.552 92.6465 193.437 92.9004 193.289 93.1543C193.144 93.4082 192.974 93.6582 192.779 93.9043C192.588 94.1504 192.383 94.3926 192.164 94.6309L189.879 97.1094H194.156ZM198.879 89.4219V98H197.795V90.7754L195.609 91.5723V90.5938L198.709 89.4219H198.879ZM202.136 97.4258C202.136 97.2422 202.193 97.0879 202.306 96.9629C202.424 96.834 202.592 96.7695 202.81 96.7695C203.029 96.7695 203.195 96.834 203.308 96.9629C203.426 97.0879 203.484 97.2422 203.484 97.4258C203.484 97.6055 203.426 97.7578 203.308 97.8828C203.195 98.0078 203.029 98.0703 202.81 98.0703C202.592 98.0703 202.424 98.0078 202.306 97.8828C202.193 97.7578 202.136 97.6055 202.136 97.4258ZM202.142 92.252C202.142 92.0684 202.199 91.9141 202.312 91.7891C202.429 91.6602 202.597 91.5957 202.816 91.5957C203.035 91.5957 203.201 91.6602 203.314 91.7891C203.431 91.9141 203.49 92.0684 203.49 92.252C203.49 92.4316 203.431 92.584 203.314 92.709C203.201 92.834 203.035 92.8965 202.816 92.8965C202.597 92.8965 202.429 92.834 202.312 92.709C202.199 92.584 202.142 92.4316 202.142 92.252ZM210.328 93.0547V94.3555C210.328 95.0547 210.265 95.6445 210.14 96.125C210.015 96.6055 209.836 96.9922 209.601 97.2852C209.367 97.5781 209.084 97.791 208.752 97.9238C208.424 98.0527 208.052 98.1172 207.638 98.1172C207.31 98.1172 207.008 98.0762 206.73 97.9941C206.453 97.9121 206.203 97.7812 205.98 97.6016C205.761 97.418 205.574 97.1797 205.418 96.8867C205.261 96.5938 205.142 96.2383 205.06 95.8203C204.978 95.4023 204.937 94.9141 204.937 94.3555V93.0547C204.937 92.3555 205 91.7695 205.125 91.2969C205.254 90.8242 205.435 90.4453 205.67 90.1602C205.904 89.8711 206.185 89.6641 206.513 89.5391C206.845 89.4141 207.217 89.3516 207.627 89.3516C207.959 89.3516 208.263 89.3926 208.541 89.4746C208.822 89.5527 209.072 89.6797 209.291 89.8555C209.51 90.0273 209.695 90.2578 209.847 90.5469C210.004 90.832 210.123 91.1816 210.205 91.5957C210.287 92.0098 210.328 92.4961 210.328 93.0547ZM209.238 94.5312V92.873C209.238 92.4902 209.215 92.1543 209.168 91.8652C209.125 91.5723 209.06 91.3223 208.974 91.1152C208.888 90.9082 208.779 90.7402 208.646 90.6113C208.517 90.4824 208.367 90.3887 208.195 90.3301C208.027 90.2676 207.838 90.2363 207.627 90.2363C207.369 90.2363 207.14 90.2852 206.941 90.3828C206.742 90.4766 206.574 90.627 206.437 90.834C206.304 91.041 206.203 91.3125 206.133 91.6484C206.062 91.9844 206.027 92.3926 206.027 92.873V94.5312C206.027 94.9141 206.049 95.252 206.092 95.5449C206.138 95.8379 206.207 96.0918 206.297 96.3066C206.386 96.5176 206.496 96.6914 206.625 96.8281C206.754 96.9648 206.902 97.0664 207.07 97.1328C207.242 97.1953 207.431 97.2266 207.638 97.2266C207.904 97.2266 208.136 97.1758 208.336 97.0742C208.535 96.9727 208.701 96.8145 208.834 96.5996C208.97 96.3809 209.072 96.1016 209.138 95.7617C209.205 95.418 209.238 95.0078 209.238 94.5312ZM217.078 93.0547V94.3555C217.078 95.0547 217.015 95.6445 216.89 96.125C216.765 96.6055 216.586 96.9922 216.351 97.2852C216.117 97.5781 215.834 97.791 215.502 97.9238C215.174 98.0527 214.802 98.1172 214.388 98.1172C214.06 98.1172 213.758 98.0762 213.48 97.9941C213.203 97.9121 212.953 97.7812 212.73 97.6016C212.511 97.418 212.324 97.1797 212.168 96.8867C212.011 96.5938 211.892 96.2383 211.81 95.8203C211.728 95.4023 211.687 94.9141 211.687 94.3555V93.0547C211.687 92.3555 211.75 91.7695 211.875 91.2969C212.004 90.8242 212.185 90.4453 212.42 90.1602C212.654 89.8711 212.935 89.6641 213.263 89.5391C213.595 89.4141 213.967 89.3516 214.377 89.3516C214.709 89.3516 215.013 89.3926 215.291 89.4746C215.572 89.5527 215.822 89.6797 216.041 89.8555C216.26 90.0273 216.445 90.2578 216.597 90.5469C216.754 90.832 216.873 91.1816 216.955 91.5957C217.037 92.0098 217.078 92.4961 217.078 93.0547ZM215.988 94.5312V92.873C215.988 92.4902 215.965 92.1543 215.918 91.8652C215.875 91.5723 215.81 91.3223 215.724 91.1152C215.638 90.9082 215.529 90.7402 215.396 90.6113C215.267 90.4824 215.117 90.3887 214.945 90.3301C214.777 90.2676 214.588 90.2363 214.377 90.2363C214.119 90.2363 213.89 90.2852 213.691 90.3828C213.492 90.4766 213.324 90.627 213.187 90.834C213.054 91.041 212.953 91.3125 212.883 91.6484C212.812 91.9844 212.777 92.3926 212.777 92.873V94.5312C212.777 94.9141 212.799 95.252 212.842 95.5449C212.888 95.8379 212.957 96.0918 213.047 96.3066C213.136 96.5176 213.246 96.6914 213.375 96.8281C213.504 96.9648 213.652 97.0664 213.82 97.1328C213.992 97.1953 214.181 97.2266 214.388 97.2266C214.654 97.2266 214.886 97.1758 215.086 97.0742C215.285 96.9727 215.451 96.8145 215.584 96.5996C215.72 96.3809 215.822 96.1016 215.888 95.7617C215.955 95.418 215.988 95.0078 215.988 94.5312Z" fill="#84858C"/>
<path d="M252.442 97.1094V98H246.858V97.2207L249.653 94.1094C249.996 93.7266 250.262 93.4023 250.449 93.1367C250.641 92.8672 250.774 92.627 250.848 92.416C250.926 92.2012 250.965 91.9824 250.965 91.7598C250.965 91.4785 250.906 91.2246 250.789 90.998C250.676 90.7676 250.508 90.584 250.285 90.4473C250.063 90.3105 249.793 90.2422 249.477 90.2422C249.098 90.2422 248.781 90.3164 248.528 90.4648C248.278 90.6094 248.09 90.8125 247.965 91.0742C247.84 91.3359 247.778 91.6367 247.778 91.9766H246.694C246.694 91.4961 246.799 91.0566 247.01 90.6582C247.221 90.2598 247.533 89.9434 247.948 89.709C248.362 89.4707 248.871 89.3516 249.477 89.3516C250.016 89.3516 250.477 89.4473 250.86 89.6387C251.242 89.8262 251.535 90.0918 251.739 90.4355C251.946 90.7754 252.049 91.1738 252.049 91.6309C252.049 91.8809 252.006 92.1348 251.92 92.3926C251.838 92.6465 251.723 92.9004 251.574 93.1543C251.43 93.4082 251.26 93.6582 251.065 93.9043C250.873 94.1504 250.668 94.3926 250.449 94.6309L248.164 97.1094H252.442ZM259.192 97.1094V98H253.608V97.2207L256.403 94.1094C256.746 93.7266 257.012 93.4023 257.199 93.1367C257.391 92.8672 257.524 92.627 257.598 92.416C257.676 92.2012 257.715 91.9824 257.715 91.7598C257.715 91.4785 257.656 91.2246 257.539 90.998C257.426 90.7676 257.258 90.584 257.035 90.4473C256.813 90.3105 256.543 90.2422 256.227 90.2422C255.848 90.2422 255.531 90.3164 255.278 90.4648C255.028 90.6094 254.84 90.8125 254.715 91.0742C254.59 91.3359 254.528 91.6367 254.528 91.9766H253.444C253.444 91.4961 253.549 91.0566 253.76 90.6582C253.971 90.2598 254.283 89.9434 254.698 89.709C255.112 89.4707 255.621 89.3516 256.227 89.3516C256.766 89.3516 257.227 89.4473 257.61 89.6387C257.992 89.8262 258.285 90.0918 258.489 90.4355C258.696 90.7754 258.799 91.1738 258.799 91.6309C258.799 91.8809 258.756 92.1348 258.67 92.3926C258.588 92.6465 258.473 92.9004 258.324 93.1543C258.18 93.4082 258.01 93.6582 257.815 93.9043C257.623 94.1504 257.418 94.3926 257.199 94.6309L254.914 97.1094H259.192ZM260.422 97.4258C260.422 97.2422 260.479 97.0879 260.592 96.9629C260.709 96.834 260.877 96.7695 261.096 96.7695C261.315 96.7695 261.481 96.834 261.594 96.9629C261.711 97.0879 261.77 97.2422 261.77 97.4258C261.77 97.6055 261.711 97.7578 261.594 97.8828C261.481 98.0078 261.315 98.0703 261.096 98.0703C260.877 98.0703 260.709 98.0078 260.592 97.8828C260.479 97.7578 260.422 97.6055 260.422 97.4258ZM260.428 92.252C260.428 92.0684 260.485 91.9141 260.598 91.7891C260.715 91.6602 260.883 91.5957 261.102 91.5957C261.321 91.5957 261.487 91.6602 261.6 91.7891C261.717 91.9141 261.776 92.0684 261.776 92.252C261.776 92.4316 261.717 92.584 261.6 92.709C261.487 92.834 261.321 92.8965 261.102 92.8965C260.883 92.8965 260.715 92.834 260.598 92.709C260.485 92.584 260.428 92.4316 260.428 92.252ZM268.614 93.0547V94.3555C268.614 95.0547 268.551 95.6445 268.426 96.125C268.301 96.6055 268.121 96.9922 267.887 97.2852C267.653 97.5781 267.369 97.791 267.037 97.9238C266.709 98.0527 266.338 98.1172 265.924 98.1172C265.596 98.1172 265.293 98.0762 265.016 97.9941C264.739 97.9121 264.489 97.7812 264.266 97.6016C264.047 97.418 263.86 97.1797 263.703 96.8867C263.547 96.5938 263.428 96.2383 263.346 95.8203C263.264 95.4023 263.223 94.9141 263.223 94.3555V93.0547C263.223 92.3555 263.285 91.7695 263.41 91.2969C263.539 90.8242 263.721 90.4453 263.955 90.1602C264.19 89.8711 264.471 89.6641 264.799 89.5391C265.131 89.4141 265.502 89.3516 265.912 89.3516C266.244 89.3516 266.549 89.3926 266.826 89.4746C267.108 89.5527 267.358 89.6797 267.576 89.8555C267.795 90.0273 267.981 90.2578 268.133 90.5469C268.289 90.832 268.408 91.1816 268.49 91.5957C268.573 92.0098 268.614 92.4961 268.614 93.0547ZM267.524 94.5312V92.873C267.524 92.4902 267.5 92.1543 267.453 91.8652C267.41 91.5723 267.346 91.3223 267.26 91.1152C267.174 90.9082 267.065 90.7402 266.932 90.6113C266.803 90.4824 266.653 90.3887 266.481 90.3301C266.313 90.2676 266.123 90.2363 265.912 90.2363C265.655 90.2363 265.426 90.2852 265.227 90.3828C265.028 90.4766 264.86 90.627 264.723 90.834C264.59 91.041 264.489 91.3125 264.418 91.6484C264.348 91.9844 264.313 92.3926 264.313 92.873V94.5312C264.313 94.9141 264.334 95.252 264.377 95.5449C264.424 95.8379 264.492 96.0918 264.582 96.3066C264.672 96.5176 264.781 96.6914 264.91 96.8281C265.039 96.9648 265.188 97.0664 265.356 97.1328C265.528 97.1953 265.717 97.2266 265.924 97.2266C266.19 97.2266 266.422 97.1758 266.621 97.0742C266.821 96.9727 266.987 96.8145 267.119 96.5996C267.256 96.3809 267.358 96.1016 267.424 95.7617C267.49 95.418 267.524 95.0078 267.524 94.5312ZM275.364 93.0547V94.3555C275.364 95.0547 275.301 95.6445 275.176 96.125C275.051 96.6055 274.871 96.9922 274.637 97.2852C274.403 97.5781 274.119 97.791 273.787 97.9238C273.459 98.0527 273.088 98.1172 272.674 98.1172C272.346 98.1172 272.043 98.0762 271.766 97.9941C271.489 97.9121 271.239 97.7812 271.016 97.6016C270.797 97.418 270.61 97.1797 270.453 96.8867C270.297 96.5938 270.178 96.2383 270.096 95.8203C270.014 95.4023 269.973 94.9141 269.973 94.3555V93.0547C269.973 92.3555 270.035 91.7695 270.16 91.2969C270.289 90.8242 270.471 90.4453 270.705 90.1602C270.94 89.8711 271.221 89.6641 271.549 89.5391C271.881 89.4141 272.252 89.3516 272.662 89.3516C272.994 89.3516 273.299 89.3926 273.576 89.4746C273.858 89.5527 274.108 89.6797 274.326 89.8555C274.545 90.0273 274.731 90.2578 274.883 90.5469C275.039 90.832 275.158 91.1816 275.24 91.5957C275.323 92.0098 275.364 92.4961 275.364 93.0547ZM274.274 94.5312V92.873C274.274 92.4902 274.25 92.1543 274.203 91.8652C274.16 91.5723 274.096 91.3223 274.01 91.1152C273.924 90.9082 273.815 90.7402 273.682 90.6113C273.553 90.4824 273.403 90.3887 273.231 90.3301C273.063 90.2676 272.873 90.2363 272.662 90.2363C272.405 90.2363 272.176 90.2852 271.977 90.3828C271.778 90.4766 271.61 90.627 271.473 90.834C271.34 91.041 271.239 91.3125 271.168 91.6484C271.098 91.9844 271.063 92.3926 271.063 92.873V94.5312C271.063 94.9141 271.084 95.252 271.127 95.5449C271.174 95.8379 271.242 96.0918 271.332 96.3066C271.422 96.5176 271.531 96.6914 271.66 96.8281C271.789 96.9648 271.938 97.0664 272.106 97.1328C272.278 97.1953 272.467 97.2266 272.674 97.2266C272.94 97.2266 273.172 97.1758 273.371 97.0742C273.571 96.9727 273.737 96.8145 273.869 96.5996C274.006 96.3809 274.108 96.1016 274.174 95.7617C274.24 95.418 274.274 95.0078 274.274 94.5312Z" fill="#84858C"/>
<path d="M310.727 97.1094V98H305.143V97.2207L307.938 94.1094C308.282 93.7266 308.548 93.4023 308.735 93.1367C308.927 92.8672 309.059 92.627 309.134 92.416C309.212 92.2012 309.251 91.9824 309.251 91.7598C309.251 91.4785 309.192 91.2246 309.075 90.998C308.962 90.7676 308.794 90.584 308.571 90.4473C308.349 90.3105 308.079 90.2422 307.763 90.2422C307.384 90.2422 307.067 90.3164 306.813 90.4648C306.563 90.6094 306.376 90.8125 306.251 91.0742C306.126 91.3359 306.063 91.6367 306.063 91.9766H304.979C304.979 91.4961 305.085 91.0566 305.296 90.6582C305.507 90.2598 305.819 89.9434 306.233 89.709C306.647 89.4707 307.157 89.3516 307.763 89.3516C308.302 89.3516 308.763 89.4473 309.145 89.6387C309.528 89.8262 309.821 90.0918 310.024 90.4355C310.231 90.7754 310.335 91.1738 310.335 91.6309C310.335 91.8809 310.292 92.1348 310.206 92.3926C310.124 92.6465 310.009 92.9004 309.86 93.1543C309.716 93.4082 309.546 93.6582 309.35 93.9043C309.159 94.1504 308.954 94.3926 308.735 94.6309L306.45 97.1094H310.727ZM313.47 93.2012H314.243C314.622 93.2012 314.934 93.1387 315.181 93.0137C315.431 92.8848 315.616 92.7109 315.737 92.4922C315.862 92.2695 315.925 92.0195 315.925 91.7422C315.925 91.4141 315.87 91.1387 315.761 90.916C315.651 90.6934 315.487 90.5254 315.268 90.4121C315.05 90.2988 314.772 90.2422 314.436 90.2422C314.132 90.2422 313.862 90.3027 313.628 90.4238C313.397 90.541 313.216 90.709 313.083 90.9277C312.954 91.1465 312.89 91.4043 312.89 91.7012H311.806C311.806 91.2676 311.915 90.873 312.134 90.5176C312.352 90.1621 312.659 89.8789 313.054 89.668C313.452 89.457 313.913 89.3516 314.436 89.3516C314.952 89.3516 315.403 89.4434 315.79 89.627C316.177 89.8066 316.477 90.0762 316.692 90.4355C316.907 90.791 317.015 91.2344 317.015 91.7656C317.015 91.9805 316.964 92.2109 316.862 92.457C316.765 92.6992 316.61 92.9258 316.399 93.1367C316.192 93.3477 315.923 93.5215 315.591 93.6582C315.259 93.791 314.86 93.8574 314.395 93.8574H313.47V93.2012ZM313.47 94.0918V93.4414H314.395C314.938 93.4414 315.388 93.5059 315.743 93.6348C316.099 93.7637 316.378 93.9355 316.581 94.1504C316.788 94.3652 316.932 94.6016 317.015 94.8594C317.1 95.1133 317.143 95.3672 317.143 95.6211C317.143 96.0195 317.075 96.373 316.938 96.6816C316.806 96.9902 316.616 97.252 316.37 97.4668C316.128 97.6816 315.843 97.8438 315.515 97.9531C315.186 98.0625 314.829 98.1172 314.442 98.1172C314.071 98.1172 313.722 98.0645 313.393 97.959C313.069 97.8535 312.782 97.7012 312.532 97.502C312.282 97.2988 312.087 97.0508 311.946 96.7578C311.806 96.4609 311.735 96.123 311.735 95.7441H312.819C312.819 96.041 312.884 96.3008 313.013 96.5234C313.145 96.7461 313.333 96.9199 313.575 97.0449C313.821 97.166 314.11 97.2266 314.442 97.2266C314.774 97.2266 315.059 97.1699 315.298 97.0566C315.54 96.9395 315.725 96.7637 315.854 96.5293C315.987 96.2949 316.054 96 316.054 95.6445C316.054 95.2891 315.979 94.998 315.831 94.7715C315.682 94.541 315.472 94.3711 315.198 94.2617C314.929 94.1484 314.61 94.0918 314.243 94.0918H313.47ZM318.708 97.4258C318.708 97.2422 318.765 97.0879 318.878 96.9629C318.995 96.834 319.163 96.7695 319.382 96.7695C319.6 96.7695 319.766 96.834 319.88 96.9629C319.997 97.0879 320.056 97.2422 320.056 97.4258C320.056 97.6055 319.997 97.7578 319.88 97.8828C319.766 98.0078 319.6 98.0703 319.382 98.0703C319.163 98.0703 318.995 98.0078 318.878 97.8828C318.765 97.7578 318.708 97.6055 318.708 97.4258ZM318.714 92.252C318.714 92.0684 318.77 91.9141 318.884 91.7891C319.001 91.6602 319.169 91.5957 319.388 91.5957C319.606 91.5957 319.772 91.6602 319.886 91.7891C320.003 91.9141 320.061 92.0684 320.061 92.252C320.061 92.4316 320.003 92.584 319.886 92.709C319.772 92.834 319.606 92.8965 319.388 92.8965C319.169 92.8965 319.001 92.834 318.884 92.709C318.77 92.584 318.714 92.4316 318.714 92.252ZM326.899 93.0547V94.3555C326.899 95.0547 326.837 95.6445 326.712 96.125C326.587 96.6055 326.407 96.9922 326.173 97.2852C325.938 97.5781 325.655 97.791 325.323 97.9238C324.995 98.0527 324.624 98.1172 324.21 98.1172C323.882 98.1172 323.579 98.0762 323.302 97.9941C323.024 97.9121 322.774 97.7812 322.552 97.6016C322.333 97.418 322.145 97.1797 321.989 96.8867C321.833 96.5938 321.714 96.2383 321.632 95.8203C321.55 95.4023 321.509 94.9141 321.509 94.3555V93.0547C321.509 92.3555 321.571 91.7695 321.696 91.2969C321.825 90.8242 322.007 90.4453 322.241 90.1602C322.475 89.8711 322.757 89.6641 323.085 89.5391C323.417 89.4141 323.788 89.3516 324.198 89.3516C324.53 89.3516 324.835 89.3926 325.112 89.4746C325.393 89.5527 325.643 89.6797 325.862 89.8555C326.081 90.0273 326.266 90.2578 326.419 90.5469C326.575 90.832 326.694 91.1816 326.776 91.5957C326.858 92.0098 326.899 92.4961 326.899 93.0547ZM325.809 94.5312V92.873C325.809 92.4902 325.786 92.1543 325.739 91.8652C325.696 91.5723 325.632 91.3223 325.546 91.1152C325.46 90.9082 325.35 90.7402 325.218 90.6113C325.089 90.4824 324.938 90.3887 324.766 90.3301C324.599 90.2676 324.409 90.2363 324.198 90.2363C323.94 90.2363 323.712 90.2852 323.513 90.3828C323.313 90.4766 323.145 90.627 323.009 90.834C322.876 91.041 322.774 91.3125 322.704 91.6484C322.634 91.9844 322.599 92.3926 322.599 92.873V94.5312C322.599 94.9141 322.62 95.252 322.663 95.5449C322.71 95.8379 322.778 96.0918 322.868 96.3066C322.958 96.5176 323.067 96.6914 323.196 96.8281C323.325 96.9648 323.474 97.0664 323.641 97.1328C323.813 97.1953 324.003 97.2266 324.21 97.2266C324.475 97.2266 324.708 97.1758 324.907 97.0742C325.106 96.9727 325.272 96.8145 325.405 96.5996C325.542 96.3809 325.643 96.1016 325.71 95.7617C325.776 95.418 325.809 95.0078 325.809 94.5312ZM333.649 93.0547V94.3555C333.649 95.0547 333.587 95.6445 333.462 96.125C333.337 96.6055 333.157 96.9922 332.923 97.2852C332.688 97.5781 332.405 97.791 332.073 97.9238C331.745 98.0527 331.374 98.1172 330.96 98.1172C330.632 98.1172 330.329 98.0762 330.052 97.9941C329.774 97.9121 329.524 97.7812 329.302 97.6016C329.083 97.418 328.895 97.1797 328.739 96.8867C328.583 96.5938 328.464 96.2383 328.382 95.8203C328.3 95.4023 328.259 94.9141 328.259 94.3555V93.0547C328.259 92.3555 328.321 91.7695 328.446 91.2969C328.575 90.8242 328.757 90.4453 328.991 90.1602C329.225 89.8711 329.507 89.6641 329.835 89.5391C330.167 89.4141 330.538 89.3516 330.948 89.3516C331.28 89.3516 331.585 89.3926 331.862 89.4746C332.143 89.5527 332.393 89.6797 332.612 89.8555C332.831 90.0273 333.016 90.2578 333.169 90.5469C333.325 90.832 333.444 91.1816 333.526 91.5957C333.608 92.0098 333.649 92.4961 333.649 93.0547ZM332.559 94.5312V92.873C332.559 92.4902 332.536 92.1543 332.489 91.8652C332.446 91.5723 332.382 91.3223 332.296 91.1152C332.21 90.9082 332.1 90.7402 331.968 90.6113C331.839 90.4824 331.688 90.3887 331.516 90.3301C331.349 90.2676 331.159 90.2363 330.948 90.2363C330.69 90.2363 330.462 90.2852 330.263 90.3828C330.063 90.4766 329.895 90.627 329.759 90.834C329.626 91.041 329.524 91.3125 329.454 91.6484C329.384 91.9844 329.349 92.3926 329.349 92.873V94.5312C329.349 94.9141 329.37 95.252 329.413 95.5449C329.46 95.8379 329.528 96.0918 329.618 96.3066C329.708 96.5176 329.817 96.6914 329.946 96.8281C330.075 96.9648 330.224 97.0664 330.391 97.1328C330.563 97.1953 330.753 97.2266 330.96 97.2266C331.225 97.2266 331.458 97.1758 331.657 97.0742C331.856 96.9727 332.022 96.8145 332.155 96.5996C332.292 96.3809 332.393 96.1016 332.46 95.7617C332.526 95.418 332.559 95.0078 332.559 94.5312Z" fill="#84858C"/>
<path d="M368.779 93.0547V94.3555C368.779 95.0547 368.716 95.6445 368.591 96.125C368.466 96.6055 368.286 96.9922 368.052 97.2852C367.818 97.5781 367.535 97.791 367.203 97.9238C366.874 98.0527 366.503 98.1172 366.089 98.1172C365.761 98.1172 365.458 98.0762 365.181 97.9941C364.904 97.9121 364.654 97.7812 364.431 97.6016C364.212 97.418 364.025 97.1797 363.869 96.8867C363.712 96.5938 363.593 96.2383 363.511 95.8203C363.429 95.4023 363.388 94.9141 363.388 94.3555V93.0547C363.388 92.3555 363.451 91.7695 363.576 91.2969C363.704 90.8242 363.886 90.4453 364.12 90.1602C364.355 89.8711 364.636 89.6641 364.964 89.5391C365.296 89.4141 365.667 89.3516 366.078 89.3516C366.41 89.3516 366.714 89.3926 366.992 89.4746C367.273 89.5527 367.523 89.6797 367.742 89.8555C367.96 90.0273 368.146 90.2578 368.298 90.5469C368.454 90.832 368.574 91.1816 368.656 91.5957C368.738 92.0098 368.779 92.4961 368.779 93.0547ZM367.689 94.5312V92.873C367.689 92.4902 367.665 92.1543 367.619 91.8652C367.576 91.5723 367.511 91.3223 367.425 91.1152C367.339 90.9082 367.23 90.7402 367.097 90.6113C366.968 90.4824 366.818 90.3887 366.646 90.3301C366.478 90.2676 366.288 90.2363 366.078 90.2363C365.82 90.2363 365.591 90.2852 365.392 90.3828C365.193 90.4766 365.025 90.627 364.888 90.834C364.755 91.041 364.654 91.3125 364.583 91.6484C364.513 91.9844 364.478 92.3926 364.478 92.873V94.5312C364.478 94.9141 364.499 95.252 364.542 95.5449C364.589 95.8379 364.658 96.0918 364.747 96.3066C364.837 96.5176 364.947 96.6914 365.076 96.8281C365.204 96.9648 365.353 97.0664 365.521 97.1328C365.693 97.1953 365.882 97.2266 366.089 97.2266C366.355 97.2266 366.587 97.1758 366.786 97.0742C366.986 96.9727 367.152 96.8145 367.285 96.5996C367.421 96.3809 367.523 96.1016 367.589 95.7617C367.656 95.418 367.689 95.0078 367.689 94.5312ZM375.529 93.0547V94.3555C375.529 95.0547 375.466 95.6445 375.341 96.125C375.216 96.6055 375.036 96.9922 374.802 97.2852C374.568 97.5781 374.285 97.791 373.953 97.9238C373.624 98.0527 373.253 98.1172 372.839 98.1172C372.511 98.1172 372.208 98.0762 371.931 97.9941C371.654 97.9121 371.404 97.7812 371.181 97.6016C370.962 97.418 370.775 97.1797 370.619 96.8867C370.462 96.5938 370.343 96.2383 370.261 95.8203C370.179 95.4023 370.138 94.9141 370.138 94.3555V93.0547C370.138 92.3555 370.201 91.7695 370.326 91.2969C370.454 90.8242 370.636 90.4453 370.87 90.1602C371.105 89.8711 371.386 89.6641 371.714 89.5391C372.046 89.4141 372.417 89.3516 372.828 89.3516C373.16 89.3516 373.464 89.3926 373.742 89.4746C374.023 89.5527 374.273 89.6797 374.492 89.8555C374.71 90.0273 374.896 90.2578 375.048 90.5469C375.204 90.832 375.324 91.1816 375.406 91.5957C375.488 92.0098 375.529 92.4961 375.529 93.0547ZM374.439 94.5312V92.873C374.439 92.4902 374.415 92.1543 374.369 91.8652C374.326 91.5723 374.261 91.3223 374.175 91.1152C374.089 90.9082 373.98 90.7402 373.847 90.6113C373.718 90.4824 373.568 90.3887 373.396 90.3301C373.228 90.2676 373.038 90.2363 372.828 90.2363C372.57 90.2363 372.341 90.2852 372.142 90.3828C371.943 90.4766 371.775 90.627 371.638 90.834C371.505 91.041 371.404 91.3125 371.333 91.6484C371.263 91.9844 371.228 92.3926 371.228 92.873V94.5312C371.228 94.9141 371.249 95.252 371.292 95.5449C371.339 95.8379 371.408 96.0918 371.497 96.3066C371.587 96.5176 371.697 96.6914 371.826 96.8281C371.954 96.9648 372.103 97.0664 372.271 97.1328C372.443 97.1953 372.632 97.2266 372.839 97.2266C373.105 97.2266 373.337 97.1758 373.536 97.0742C373.736 96.9727 373.902 96.8145 374.035 96.5996C374.171 96.3809 374.273 96.1016 374.339 95.7617C374.406 95.418 374.439 95.0078 374.439 94.5312ZM376.994 97.4258C376.994 97.2422 377.05 97.0879 377.163 96.9629C377.281 96.834 377.449 96.7695 377.667 96.7695C377.886 96.7695 378.052 96.834 378.165 96.9629C378.283 97.0879 378.341 97.2422 378.341 97.4258C378.341 97.6055 378.283 97.7578 378.165 97.8828C378.052 98.0078 377.886 98.0703 377.667 98.0703C377.449 98.0703 377.281 98.0078 377.163 97.8828C377.05 97.7578 376.994 97.6055 376.994 97.4258ZM376.999 92.252C376.999 92.0684 377.056 91.9141 377.169 91.7891C377.286 91.6602 377.454 91.5957 377.673 91.5957C377.892 91.5957 378.058 91.6602 378.171 91.7891C378.288 91.9141 378.347 92.0684 378.347 92.252C378.347 92.4316 378.288 92.584 378.171 92.709C378.058 92.834 377.892 92.8965 377.673 92.8965C377.454 92.8965 377.286 92.834 377.169 92.709C377.056 92.584 376.999 92.4316 376.999 92.252ZM385.185 93.0547V94.3555C385.185 95.0547 385.122 95.6445 384.997 96.125C384.872 96.6055 384.693 96.9922 384.458 97.2852C384.224 97.5781 383.941 97.791 383.609 97.9238C383.281 98.0527 382.91 98.1172 382.495 98.1172C382.167 98.1172 381.865 98.0762 381.587 97.9941C381.31 97.9121 381.06 97.7812 380.837 97.6016C380.619 97.418 380.431 97.1797 380.275 96.8867C380.119 96.5938 379.999 96.2383 379.917 95.8203C379.835 95.4023 379.794 94.9141 379.794 94.3555V93.0547C379.794 92.3555 379.857 91.7695 379.982 91.2969C380.111 90.8242 380.292 90.4453 380.527 90.1602C380.761 89.8711 381.042 89.6641 381.37 89.5391C381.703 89.4141 382.074 89.3516 382.484 89.3516C382.816 89.3516 383.12 89.3926 383.398 89.4746C383.679 89.5527 383.929 89.6797 384.148 89.8555C384.367 90.0273 384.552 90.2578 384.704 90.5469C384.861 90.832 384.98 91.1816 385.062 91.5957C385.144 92.0098 385.185 92.4961 385.185 93.0547ZM384.095 94.5312V92.873C384.095 92.4902 384.072 92.1543 384.025 91.8652C383.982 91.5723 383.917 91.3223 383.831 91.1152C383.745 90.9082 383.636 90.7402 383.503 90.6113C383.374 90.4824 383.224 90.3887 383.052 90.3301C382.884 90.2676 382.695 90.2363 382.484 90.2363C382.226 90.2363 381.997 90.2852 381.798 90.3828C381.599 90.4766 381.431 90.627 381.294 90.834C381.161 91.041 381.06 91.3125 380.99 91.6484C380.919 91.9844 380.884 92.3926 380.884 92.873V94.5312C380.884 94.9141 380.906 95.252 380.949 95.5449C380.995 95.8379 381.064 96.0918 381.154 96.3066C381.244 96.5176 381.353 96.6914 381.482 96.8281C381.611 96.9648 381.759 97.0664 381.927 97.1328C382.099 97.1953 382.288 97.2266 382.495 97.2266C382.761 97.2266 382.994 97.1758 383.193 97.0742C383.392 96.9727 383.558 96.8145 383.691 96.5996C383.828 96.3809 383.929 96.1016 383.995 95.7617C384.062 95.418 384.095 95.0078 384.095 94.5312ZM391.935 93.0547V94.3555C391.935 95.0547 391.872 95.6445 391.747 96.125C391.622 96.6055 391.443 96.9922 391.208 97.2852C390.974 97.5781 390.691 97.791 390.359 97.9238C390.031 98.0527 389.66 98.1172 389.245 98.1172C388.917 98.1172 388.615 98.0762 388.337 97.9941C388.06 97.9121 387.81 97.7812 387.587 97.6016C387.369 97.418 387.181 97.1797 387.025 96.8867C386.869 96.5938 386.749 96.2383 386.667 95.8203C386.585 95.4023 386.544 94.9141 386.544 94.3555V93.0547C386.544 92.3555 386.607 91.7695 386.732 91.2969C386.861 90.8242 387.042 90.4453 387.277 90.1602C387.511 89.8711 387.792 89.6641 388.12 89.5391C388.453 89.4141 388.824 89.3516 389.234 89.3516C389.566 89.3516 389.87 89.3926 390.148 89.4746C390.429 89.5527 390.679 89.6797 390.898 89.8555C391.117 90.0273 391.302 90.2578 391.454 90.5469C391.611 90.832 391.73 91.1816 391.812 91.5957C391.894 92.0098 391.935 92.4961 391.935 93.0547ZM390.845 94.5312V92.873C390.845 92.4902 390.822 92.1543 390.775 91.8652C390.732 91.5723 390.667 91.3223 390.581 91.1152C390.495 90.9082 390.386 90.7402 390.253 90.6113C390.124 90.4824 389.974 90.3887 389.802 90.3301C389.634 90.2676 389.445 90.2363 389.234 90.2363C388.976 90.2363 388.747 90.2852 388.548 90.3828C388.349 90.4766 388.181 90.627 388.044 90.834C387.911 91.041 387.81 91.3125 387.74 91.6484C387.669 91.9844 387.634 92.3926 387.634 92.873V94.5312C387.634 94.9141 387.656 95.252 387.699 95.5449C387.745 95.8379 387.814 96.0918 387.904 96.3066C387.994 96.5176 388.103 96.6914 388.232 96.8281C388.361 96.9648 388.509 97.0664 388.677 97.1328C388.849 97.1953 389.038 97.2266 389.245 97.2266C389.511 97.2266 389.744 97.1758 389.943 97.0742C390.142 96.9727 390.308 96.8145 390.441 96.5996C390.578 96.3809 390.679 96.1016 390.745 95.7617C390.812 95.418 390.845 95.0078 390.845 94.5312Z" fill="#84858C"/>
<path d="M427.064 93.0547V94.3555C427.064 95.0547 427.002 95.6445 426.877 96.125C426.752 96.6055 426.572 96.9922 426.338 97.2852C426.104 97.5781 425.82 97.791 425.488 97.9238C425.16 98.0527 424.789 98.1172 424.375 98.1172C424.047 98.1172 423.744 98.0762 423.467 97.9941C423.189 97.9121 422.939 97.7812 422.717 97.6016C422.498 97.418 422.311 97.1797 422.154 96.8867C421.998 96.5938 421.879 96.2383 421.797 95.8203C421.715 95.4023 421.674 94.9141 421.674 94.3555V93.0547C421.674 92.3555 421.736 91.7695 421.861 91.2969C421.99 90.8242 422.172 90.4453 422.406 90.1602C422.641 89.8711 422.922 89.6641 423.25 89.5391C423.582 89.4141 423.953 89.3516 424.363 89.3516C424.695 89.3516 425 89.3926 425.277 89.4746C425.559 89.5527 425.809 89.6797 426.027 89.8555C426.246 90.0273 426.432 90.2578 426.584 90.5469C426.74 90.832 426.859 91.1816 426.941 91.5957C427.023 92.0098 427.064 92.4961 427.064 93.0547ZM425.975 94.5312V92.873C425.975 92.4902 425.951 92.1543 425.904 91.8652C425.861 91.5723 425.797 91.3223 425.711 91.1152C425.625 90.9082 425.516 90.7402 425.383 90.6113C425.254 90.4824 425.104 90.3887 424.932 90.3301C424.764 90.2676 424.574 90.2363 424.363 90.2363C424.105 90.2363 423.877 90.2852 423.678 90.3828C423.479 90.4766 423.311 90.627 423.174 90.834C423.041 91.041 422.939 91.3125 422.869 91.6484C422.799 91.9844 422.764 92.3926 422.764 92.873V94.5312C422.764 94.9141 422.785 95.252 422.828 95.5449C422.875 95.8379 422.943 96.0918 423.033 96.3066C423.123 96.5176 423.232 96.6914 423.361 96.8281C423.49 96.9648 423.639 97.0664 423.807 97.1328C423.979 97.1953 424.168 97.2266 424.375 97.2266C424.641 97.2266 424.873 97.1758 425.072 97.0742C425.271 96.9727 425.438 96.8145 425.57 96.5996C425.707 96.3809 425.809 96.1016 425.875 95.7617C425.941 95.418 425.975 95.0078 425.975 94.5312ZM432.021 89.4219V98H430.938V90.7754L428.752 91.5723V90.5938L431.852 89.4219H432.021ZM435.279 97.4258C435.279 97.2422 435.336 97.0879 435.449 96.9629C435.566 96.834 435.734 96.7695 435.953 96.7695C436.172 96.7695 436.338 96.834 436.451 96.9629C436.568 97.0879 436.627 97.2422 436.627 97.4258C436.627 97.6055 436.568 97.7578 436.451 97.8828C436.338 98.0078 436.172 98.0703 435.953 98.0703C435.734 98.0703 435.566 98.0078 435.449 97.8828C435.336 97.7578 435.279 97.6055 435.279 97.4258ZM435.285 92.252C435.285 92.0684 435.342 91.9141 435.455 91.7891C435.572 91.6602 435.74 91.5957 435.959 91.5957C436.178 91.5957 436.344 91.6602 436.457 91.7891C436.574 91.9141 436.633 92.0684 436.633 92.252C436.633 92.4316 436.574 92.584 436.457 92.709C436.344 92.834 436.178 92.8965 435.959 92.8965C435.74 92.8965 435.572 92.834 435.455 92.709C435.342 92.584 435.285 92.4316 435.285 92.252ZM443.471 93.0547V94.3555C443.471 95.0547 443.408 95.6445 443.283 96.125C443.158 96.6055 442.979 96.9922 442.744 97.2852C442.51 97.5781 442.227 97.791 441.895 97.9238C441.566 98.0527 441.195 98.1172 440.781 98.1172C440.453 98.1172 440.15 98.0762 439.873 97.9941C439.596 97.9121 439.346 97.7812 439.123 97.6016C438.904 97.418 438.717 97.1797 438.561 96.8867C438.404 96.5938 438.285 96.2383 438.203 95.8203C438.121 95.4023 438.08 94.9141 438.08 94.3555V93.0547C438.08 92.3555 438.143 91.7695 438.268 91.2969C438.396 90.8242 438.578 90.4453 438.812 90.1602C439.047 89.8711 439.328 89.6641 439.656 89.5391C439.988 89.4141 440.359 89.3516 440.77 89.3516C441.102 89.3516 441.406 89.3926 441.684 89.4746C441.965 89.5527 442.215 89.6797 442.434 89.8555C442.652 90.0273 442.838 90.2578 442.99 90.5469C443.146 90.832 443.266 91.1816 443.348 91.5957C443.43 92.0098 443.471 92.4961 443.471 93.0547ZM442.381 94.5312V92.873C442.381 92.4902 442.357 92.1543 442.311 91.8652C442.268 91.5723 442.203 91.3223 442.117 91.1152C442.031 90.9082 441.922 90.7402 441.789 90.6113C441.66 90.4824 441.51 90.3887 441.338 90.3301C441.17 90.2676 440.98 90.2363 440.77 90.2363C440.512 90.2363 440.283 90.2852 440.084 90.3828C439.885 90.4766 439.717 90.627 439.58 90.834C439.447 91.041 439.346 91.3125 439.275 91.6484C439.205 91.9844 439.17 92.3926 439.17 92.873V94.5312C439.17 94.9141 439.191 95.252 439.234 95.5449C439.281 95.8379 439.35 96.0918 439.439 96.3066C439.529 96.5176 439.639 96.6914 439.768 96.8281C439.896 96.9648 440.045 97.0664 440.213 97.1328C440.385 97.1953 440.574 97.2266 440.781 97.2266C441.047 97.2266 441.279 97.1758 441.479 97.0742C441.678 96.9727 441.844 96.8145 441.977 96.5996C442.113 96.3809 442.215 96.1016 442.281 95.7617C442.348 95.418 442.381 95.0078 442.381 94.5312ZM450.221 93.0547V94.3555C450.221 95.0547 450.158 95.6445 450.033 96.125C449.908 96.6055 449.729 96.9922 449.494 97.2852C449.26 97.5781 448.977 97.791 448.645 97.9238C448.316 98.0527 447.945 98.1172 447.531 98.1172C447.203 98.1172 446.9 98.0762 446.623 97.9941C446.346 97.9121 446.096 97.7812 445.873 97.6016C445.654 97.418 445.467 97.1797 445.311 96.8867C445.154 96.5938 445.035 96.2383 444.953 95.8203C444.871 95.4023 444.83 94.9141 444.83 94.3555V93.0547C444.83 92.3555 444.893 91.7695 445.018 91.2969C445.146 90.8242 445.328 90.4453 445.562 90.1602C445.797 89.8711 446.078 89.6641 446.406 89.5391C446.738 89.4141 447.109 89.3516 447.52 89.3516C447.852 89.3516 448.156 89.3926 448.434 89.4746C448.715 89.5527 448.965 89.6797 449.184 89.8555C449.402 90.0273 449.588 90.2578 449.74 90.5469C449.896 90.832 450.016 91.1816 450.098 91.5957C450.18 92.0098 450.221 92.4961 450.221 93.0547ZM449.131 94.5312V92.873C449.131 92.4902 449.107 92.1543 449.061 91.8652C449.018 91.5723 448.953 91.3223 448.867 91.1152C448.781 90.9082 448.672 90.7402 448.539 90.6113C448.41 90.4824 448.26 90.3887 448.088 90.3301C447.92 90.2676 447.73 90.2363 447.52 90.2363C447.262 90.2363 447.033 90.2852 446.834 90.3828C446.635 90.4766 446.467 90.627 446.33 90.834C446.197 91.041 446.096 91.3125 446.025 91.6484C445.955 91.9844 445.92 92.3926 445.92 92.873V94.5312C445.92 94.9141 445.941 95.252 445.984 95.5449C446.031 95.8379 446.1 96.0918 446.189 96.3066C446.279 96.5176 446.389 96.6914 446.518 96.8281C446.646 96.9648 446.795 97.0664 446.963 97.1328C447.135 97.1953 447.324 97.2266 447.531 97.2266C447.797 97.2266 448.029 97.1758 448.229 97.0742C448.428 96.9727 448.594 96.8145 448.727 96.5996C448.863 96.3809 448.965 96.1016 449.031 95.7617C449.098 95.418 449.131 95.0078 449.131 94.5312Z" fill="#84858C"/>
<path d="M24.3655 23.1094V24H18.7815V23.2207L21.5764 20.1094C21.9202 19.7266 22.1858 19.4023 22.3733 19.1367C22.5647 18.8672 22.6975 18.627 22.7717 18.416C22.8499 18.2012 22.8889 17.9824 22.8889 17.7598C22.8889 17.4785 22.8303 17.2246 22.7131 16.998C22.5999 16.7676 22.4319 16.584 22.2092 16.4473C21.9866 16.3105 21.717 16.2422 21.4006 16.2422C21.0217 16.2422 20.7053 16.3164 20.4514 16.4648C20.2014 16.6094 20.0139 16.8125 19.8889 17.0742C19.7639 17.3359 19.7014 17.6367 19.7014 17.9766H18.6174C18.6174 17.4961 18.7229 17.0566 18.9338 16.6582C19.1448 16.2598 19.4573 15.9434 19.8713 15.709C20.2854 15.4707 20.7952 15.3516 21.4006 15.3516C21.9397 15.3516 22.4006 15.4473 22.7834 15.6387C23.1663 15.8262 23.4592 16.0918 23.6624 16.4355C23.8694 16.7754 23.9729 17.1738 23.9729 17.6309C23.9729 17.8809 23.9299 18.1348 23.844 18.3926C23.762 18.6465 23.6467 18.9004 23.4983 19.1543C23.3538 19.4082 23.1838 19.6582 22.9885 19.9043C22.7971 20.1504 22.592 20.3926 22.3733 20.6309L20.0881 23.1094H24.3655ZM26.6038 23.0918H26.7151C27.3401 23.0918 27.8479 23.0039 28.2385 22.8281C28.6292 22.6523 28.9299 22.416 29.1409 22.1191C29.3518 21.8223 29.4963 21.4883 29.5745 21.1172C29.6526 20.7422 29.6917 20.3574 29.6917 19.9629V18.6562C29.6917 18.2695 29.6467 17.9258 29.5569 17.625C29.4709 17.3242 29.3499 17.0723 29.1936 16.8691C29.0413 16.666 28.8674 16.5117 28.6721 16.4062C28.4768 16.3008 28.2698 16.248 28.051 16.248C27.801 16.248 27.5764 16.2988 27.3772 16.4004C27.1819 16.498 27.0159 16.6367 26.8792 16.8164C26.7463 16.9961 26.6448 17.207 26.5745 17.4492C26.5042 17.6914 26.469 17.9551 26.469 18.2402C26.469 18.4941 26.5002 18.7402 26.5627 18.9785C26.6252 19.2168 26.7209 19.4316 26.8499 19.623C26.9788 19.8145 27.1389 19.9668 27.3303 20.0801C27.5256 20.1895 27.7542 20.2441 28.0159 20.2441C28.2581 20.2441 28.4846 20.1973 28.6956 20.1035C28.9104 20.0059 29.0999 19.875 29.2639 19.7109C29.4319 19.543 29.5647 19.3535 29.6624 19.1426C29.7639 18.9316 29.8225 18.7109 29.8381 18.4805H30.3538C30.3538 18.8047 30.2893 19.125 30.1604 19.4414C30.0354 19.7539 29.8596 20.0391 29.6331 20.2969C29.4065 20.5547 29.1409 20.7617 28.8362 20.918C28.5315 21.0703 28.1995 21.1465 27.8401 21.1465C27.4182 21.1465 27.053 21.0645 26.7444 20.9004C26.4358 20.7363 26.1819 20.5176 25.9827 20.2441C25.7874 19.9707 25.6409 19.666 25.5432 19.3301C25.4495 18.9902 25.4026 18.6465 25.4026 18.2988C25.4026 17.8926 25.4592 17.5117 25.5725 17.1562C25.6858 16.8008 25.8538 16.4883 26.0764 16.2188C26.2991 15.9453 26.5745 15.7324 26.9026 15.5801C27.2346 15.4277 27.6174 15.3516 28.051 15.3516C28.5393 15.3516 28.9553 15.4492 29.2991 15.6445C29.6428 15.8398 29.9221 16.1016 30.137 16.4297C30.3557 16.7578 30.5159 17.127 30.6174 17.5371C30.719 17.9473 30.7698 18.3691 30.7698 18.8027V19.1953C30.7698 19.6367 30.7405 20.0859 30.6819 20.543C30.6272 20.9961 30.5198 21.4297 30.3596 21.8438C30.2034 22.2578 29.9749 22.6289 29.6741 22.957C29.3733 23.2812 28.9807 23.5391 28.4963 23.7305C28.0159 23.918 27.4221 24.0117 26.7151 24.0117H26.6038V23.0918ZM33.6547 19.104C33.0387 19.104 32.5747 18.876 32.2627 18.42C31.9507 17.956 31.7947 17.292 31.7947 16.428C31.7947 15.58 31.9427 14.928 32.2387 14.472C32.5347 14.008 33.0067 13.776 33.6547 13.776C34.2707 13.776 34.7347 14.004 35.0467 14.46C35.3667 14.916 35.5267 15.572 35.5267 16.428C35.5267 17.276 35.3787 17.936 35.0827 18.408C34.7947 18.872 34.3187 19.104 33.6547 19.104ZM33.6547 18.348C34.0067 18.348 34.2627 18.192 34.4227 17.88C34.5827 17.56 34.6627 17.076 34.6627 16.428C34.6627 15.788 34.5827 15.312 34.4227 15C34.2627 14.68 34.0067 14.52 33.6547 14.52C33.3107 14.52 33.0587 14.68 32.8987 15C32.7467 15.312 32.6707 15.792 32.6707 16.44C32.6707 17.072 32.7467 17.548 32.8987 17.868C33.0587 18.188 33.3107 18.348 33.6547 18.348Z" fill="#84858C"/>
<path d="M82.9178 20.1094V21H77.3339V20.2207L80.1288 17.1094C80.4725 16.7266 80.7382 16.4023 80.9257 16.1367C81.1171 15.8672 81.2499 15.627 81.3241 15.416C81.4022 15.2012 81.4413 14.9824 81.4413 14.7598C81.4413 14.4785 81.3827 14.2246 81.2655 13.998C81.1522 13.7676 80.9843 13.584 80.7616 13.4473C80.5389 13.3105 80.2694 13.2422 79.953 13.2422C79.5741 13.2422 79.2577 13.3164 79.0038 13.4648C78.7538 13.6094 78.5663 13.8125 78.4413 14.0742C78.3163 14.3359 78.2538 14.6367 78.2538 14.9766H77.1698C77.1698 14.4961 77.2753 14.0566 77.4862 13.6582C77.6971 13.2598 78.0096 12.9434 78.4237 12.709C78.8378 12.4707 79.3475 12.3516 79.953 12.3516C80.4921 12.3516 80.953 12.4473 81.3358 12.6387C81.7186 12.8262 82.0116 13.0918 82.2147 13.4355C82.4218 13.7754 82.5253 14.1738 82.5253 14.6309C82.5253 14.8809 82.4823 15.1348 82.3964 15.3926C82.3143 15.6465 82.1991 15.9004 82.0507 16.1543C81.9061 16.4082 81.7362 16.6582 81.5409 16.9043C81.3495 17.1504 81.1444 17.3926 80.9257 17.6309L78.6405 20.1094H82.9178ZM85.1561 20.0918H85.2675C85.8925 20.0918 86.4003 20.0039 86.7909 19.8281C87.1815 19.6523 87.4823 19.416 87.6932 19.1191C87.9042 18.8223 88.0487 18.4883 88.1268 18.1172C88.205 17.7422 88.244 17.3574 88.244 16.9629V15.6562C88.244 15.2695 88.1991 14.9258 88.1093 14.625C88.0233 14.3242 87.9022 14.0723 87.746 13.8691C87.5936 13.666 87.4198 13.5117 87.2245 13.4062C87.0292 13.3008 86.8221 13.248 86.6034 13.248C86.3534 13.248 86.1288 13.2988 85.9296 13.4004C85.7343 13.498 85.5682 13.6367 85.4315 13.8164C85.2987 13.9961 85.1971 14.207 85.1268 14.4492C85.0565 14.6914 85.0214 14.9551 85.0214 15.2402C85.0214 15.4941 85.0526 15.7402 85.1151 15.9785C85.1776 16.2168 85.2733 16.4316 85.4022 16.623C85.5311 16.8145 85.6913 16.9668 85.8827 17.0801C86.078 17.1895 86.3065 17.2441 86.5682 17.2441C86.8104 17.2441 87.037 17.1973 87.2479 17.1035C87.4628 17.0059 87.6522 16.875 87.8163 16.7109C87.9843 16.543 88.1171 16.3535 88.2147 16.1426C88.3163 15.9316 88.3749 15.7109 88.3905 15.4805H88.9061C88.9061 15.8047 88.8417 16.125 88.7128 16.4414C88.5878 16.7539 88.412 17.0391 88.1854 17.2969C87.9589 17.5547 87.6932 17.7617 87.3885 17.918C87.0839 18.0703 86.7518 18.1465 86.3925 18.1465C85.9706 18.1465 85.6053 18.0645 85.2968 17.9004C84.9882 17.7363 84.7343 17.5176 84.535 17.2441C84.3397 16.9707 84.1932 16.666 84.0956 16.3301C84.0018 15.9902 83.955 15.6465 83.955 15.2988C83.955 14.8926 84.0116 14.5117 84.1249 14.1562C84.2382 13.8008 84.4061 13.4883 84.6288 13.2188C84.8514 12.9453 85.1268 12.7324 85.455 12.5801C85.787 12.4277 86.1698 12.3516 86.6034 12.3516C87.0917 12.3516 87.5077 12.4492 87.8514 12.6445C88.1952 12.8398 88.4745 13.1016 88.6893 13.4297C88.9081 13.7578 89.0682 14.127 89.1698 14.5371C89.2714 14.9473 89.3221 15.3691 89.3221 15.8027V16.1953C89.3221 16.6367 89.2928 17.0859 89.2343 17.543C89.1796 17.9961 89.0721 18.4297 88.912 18.8438C88.7557 19.2578 88.5272 19.6289 88.2264 19.957C87.9257 20.2812 87.5331 20.5391 87.0487 20.7305C86.5682 20.918 85.9745 21.0117 85.2675 21.0117H85.1561V20.0918ZM92.207 16.104C91.591 16.104 91.127 15.876 90.815 15.42C90.503 14.956 90.347 14.292 90.347 13.428C90.347 12.58 90.495 11.928 90.791 11.472C91.087 11.008 91.559 10.776 92.207 10.776C92.823 10.776 93.287 11.004 93.599 11.46C93.919 11.916 94.079 12.572 94.079 13.428C94.079 14.276 93.931 14.936 93.635 15.408C93.347 15.872 92.871 16.104 92.207 16.104ZM92.207 15.348C92.559 15.348 92.815 15.192 92.975 14.88C93.135 14.56 93.215 14.076 93.215 13.428C93.215 12.788 93.135 12.312 92.975 12C92.815 11.68 92.559 11.52 92.207 11.52C91.863 11.52 91.611 11.68 91.451 12C91.299 12.312 91.223 12.792 91.223 13.44C91.223 14.072 91.299 14.548 91.451 14.868C91.611 15.188 91.863 15.348 92.207 15.348Z" fill="#84858C"/>
<path d="M141.47 15.1094V16H135.886V15.2207L138.681 12.1094C139.025 11.7266 139.291 11.4023 139.478 11.1367C139.669 10.8672 139.802 10.627 139.876 10.416C139.955 10.2012 139.994 9.98242 139.994 9.75977C139.994 9.47852 139.935 9.22461 139.818 8.99805C139.705 8.76758 139.537 8.58398 139.314 8.44727C139.091 8.31055 138.822 8.24219 138.505 8.24219C138.126 8.24219 137.81 8.31641 137.556 8.46484C137.306 8.60938 137.119 8.8125 136.994 9.07422C136.869 9.33594 136.806 9.63672 136.806 9.97656H135.722C135.722 9.49609 135.828 9.05664 136.039 8.6582C136.25 8.25977 136.562 7.94336 136.976 7.70898C137.39 7.4707 137.9 7.35156 138.505 7.35156C139.044 7.35156 139.505 7.44727 139.888 7.63867C140.271 7.82617 140.564 8.0918 140.767 8.43555C140.974 8.77539 141.078 9.17383 141.078 9.63086C141.078 9.88086 141.035 10.1348 140.949 10.3926C140.867 10.6465 140.751 10.9004 140.603 11.1543C140.458 11.4082 140.289 11.6582 140.093 11.9043C139.902 12.1504 139.697 12.3926 139.478 12.6309L137.193 15.1094H141.47ZM143.708 15.0918H143.82C144.445 15.0918 144.953 15.0039 145.343 14.8281C145.734 14.6523 146.035 14.416 146.246 14.1191C146.457 13.8223 146.601 13.4883 146.679 13.1172C146.757 12.7422 146.796 12.3574 146.796 11.9629V10.6562C146.796 10.2695 146.751 9.92578 146.662 9.625C146.576 9.32422 146.455 9.07227 146.298 8.86914C146.146 8.66602 145.972 8.51172 145.777 8.40625C145.582 8.30078 145.375 8.24805 145.156 8.24805C144.906 8.24805 144.681 8.29883 144.482 8.40039C144.287 8.49805 144.121 8.63672 143.984 8.81641C143.851 8.99609 143.75 9.20703 143.679 9.44922C143.609 9.69141 143.574 9.95508 143.574 10.2402C143.574 10.4941 143.605 10.7402 143.667 10.9785C143.73 11.2168 143.826 11.4316 143.955 11.623C144.083 11.8145 144.244 11.9668 144.435 12.0801C144.63 12.1895 144.859 12.2441 145.121 12.2441C145.363 12.2441 145.589 12.1973 145.8 12.1035C146.015 12.0059 146.205 11.875 146.369 11.7109C146.537 11.543 146.669 11.3535 146.767 11.1426C146.869 10.9316 146.927 10.7109 146.943 10.4805H147.458C147.458 10.8047 147.394 11.125 147.265 11.4414C147.14 11.7539 146.964 12.0391 146.738 12.2969C146.511 12.5547 146.246 12.7617 145.941 12.918C145.636 13.0703 145.304 13.1465 144.945 13.1465C144.523 13.1465 144.158 13.0645 143.849 12.9004C143.541 12.7363 143.287 12.5176 143.087 12.2441C142.892 11.9707 142.746 11.666 142.648 11.3301C142.554 10.9902 142.507 10.6465 142.507 10.2988C142.507 9.89258 142.564 9.51172 142.677 9.15625C142.791 8.80078 142.958 8.48828 143.181 8.21875C143.404 7.94531 143.679 7.73242 144.007 7.58008C144.339 7.42773 144.722 7.35156 145.156 7.35156C145.644 7.35156 146.06 7.44922 146.404 7.64453C146.748 7.83984 147.027 8.10156 147.242 8.42969C147.46 8.75781 147.621 9.12695 147.722 9.53711C147.824 9.94727 147.875 10.3691 147.875 10.8027V11.1953C147.875 11.6367 147.845 12.0859 147.787 12.543C147.732 12.9961 147.625 13.4297 147.464 13.8438C147.308 14.2578 147.08 14.6289 146.779 14.957C146.478 15.2812 146.085 15.5391 145.601 15.7305C145.121 15.918 144.527 16.0117 143.82 16.0117H143.708V15.0918ZM150.759 11.104C150.143 11.104 149.679 10.876 149.367 10.42C149.055 9.956 148.899 9.292 148.899 8.428C148.899 7.58 149.047 6.928 149.343 6.472C149.639 6.008 150.111 5.776 150.759 5.776C151.375 5.776 151.839 6.004 152.151 6.46C152.471 6.916 152.631 7.572 152.631 8.428C152.631 9.276 152.483 9.936 152.187 10.408C151.899 10.872 151.423 11.104 150.759 11.104ZM150.759 10.348C151.111 10.348 151.367 10.192 151.527 9.88C151.687 9.56 151.767 9.076 151.767 8.428C151.767 7.788 151.687 7.312 151.527 7C151.367 6.68 151.111 6.52 150.759 6.52C150.415 6.52 150.163 6.68 150.003 7C149.851 7.312 149.775 7.792 149.775 8.44C149.775 9.072 149.851 9.548 150.003 9.868C150.163 10.188 150.415 10.348 150.759 10.348Z" fill="#84858C"/>
<path d="M200.023 24.1094V25H194.439V24.2207L197.234 21.1094C197.577 20.7266 197.843 20.4023 198.03 20.1367C198.222 19.8672 198.355 19.627 198.429 19.416C198.507 19.2012 198.546 18.9824 198.546 18.7598C198.546 18.4785 198.487 18.2246 198.37 17.998C198.257 17.7676 198.089 17.584 197.866 17.4473C197.644 17.3105 197.374 17.2422 197.058 17.2422C196.679 17.2422 196.362 17.3164 196.109 17.4648C195.859 17.6094 195.671 17.8125 195.546 18.0742C195.421 18.3359 195.359 18.6367 195.359 18.9766H194.275C194.275 18.4961 194.38 18.0566 194.591 17.6582C194.802 17.2598 195.114 16.9434 195.528 16.709C195.943 16.4707 196.452 16.3516 197.058 16.3516C197.597 16.3516 198.058 16.4473 198.441 16.6387C198.823 16.8262 199.116 17.0918 199.319 17.4355C199.526 17.7754 199.63 18.1738 199.63 18.6309C199.63 18.8809 199.587 19.1348 199.501 19.3926C199.419 19.6465 199.304 19.9004 199.155 20.1543C199.011 20.4082 198.841 20.6582 198.646 20.9043C198.454 21.1504 198.249 21.3926 198.03 21.6309L195.745 24.1094H200.023ZM202.261 24.0918H202.372C202.997 24.0918 203.505 24.0039 203.896 23.8281C204.286 23.6523 204.587 23.416 204.798 23.1191C205.009 22.8223 205.153 22.4883 205.232 22.1172C205.31 21.7422 205.349 21.3574 205.349 20.9629V19.6562C205.349 19.2695 205.304 18.9258 205.214 18.625C205.128 18.3242 205.007 18.0723 204.851 17.8691C204.698 17.666 204.525 17.5117 204.329 17.4062C204.134 17.3008 203.927 17.248 203.708 17.248C203.458 17.248 203.234 17.2988 203.034 17.4004C202.839 17.498 202.673 17.6367 202.536 17.8164C202.403 17.9961 202.302 18.207 202.232 18.4492C202.161 18.6914 202.126 18.9551 202.126 19.2402C202.126 19.4941 202.157 19.7402 202.22 19.9785C202.282 20.2168 202.378 20.4316 202.507 20.623C202.636 20.8145 202.796 20.9668 202.987 21.0801C203.183 21.1895 203.411 21.2441 203.673 21.2441C203.915 21.2441 204.142 21.1973 204.353 21.1035C204.568 21.0059 204.757 20.875 204.921 20.7109C205.089 20.543 205.222 20.3535 205.319 20.1426C205.421 19.9316 205.48 19.7109 205.495 19.4805H206.011C206.011 19.8047 205.946 20.125 205.818 20.4414C205.693 20.7539 205.517 21.0391 205.29 21.2969C205.064 21.5547 204.798 21.7617 204.493 21.918C204.189 22.0703 203.857 22.1465 203.497 22.1465C203.075 22.1465 202.71 22.0645 202.401 21.9004C202.093 21.7363 201.839 21.5176 201.64 21.2441C201.444 20.9707 201.298 20.666 201.2 20.3301C201.107 19.9902 201.06 19.6465 201.06 19.2988C201.06 18.8926 201.116 18.5117 201.23 18.1562C201.343 17.8008 201.511 17.4883 201.734 17.2188C201.956 16.9453 202.232 16.7324 202.56 16.5801C202.892 16.4277 203.275 16.3516 203.708 16.3516C204.196 16.3516 204.612 16.4492 204.956 16.6445C205.3 16.8398 205.579 17.1016 205.794 17.4297C206.013 17.7578 206.173 18.127 206.275 18.5371C206.376 18.9473 206.427 19.3691 206.427 19.8027V20.1953C206.427 20.6367 206.398 21.0859 206.339 21.543C206.284 21.9961 206.177 22.4297 206.017 22.8438C205.86 23.2578 205.632 23.6289 205.331 23.957C205.03 24.2812 204.638 24.5391 204.153 24.7305C203.673 24.918 203.079 25.0117 202.372 25.0117H202.261V24.0918ZM209.312 20.104C208.696 20.104 208.232 19.876 207.92 19.42C207.608 18.956 207.452 18.292 207.452 17.428C207.452 16.58 207.6 15.928 207.896 15.472C208.192 15.008 208.664 14.776 209.312 14.776C209.928 14.776 210.392 15.004 210.704 15.46C211.024 15.916 211.184 16.572 211.184 17.428C211.184 18.276 211.036 18.936 210.74 19.408C210.452 19.872 209.976 20.104 209.312 20.104ZM209.312 19.348C209.664 19.348 209.92 19.192 210.08 18.88C210.24 18.56 210.32 18.076 210.32 17.428C210.32 16.788 210.24 16.312 210.08 16C209.92 15.68 209.664 15.52 209.312 15.52C208.968 15.52 208.716 15.68 208.556 16C208.404 16.312 208.328 16.792 208.328 17.44C208.328 18.072 208.404 18.548 208.556 18.868C208.716 19.188 208.968 19.348 209.312 19.348Z" fill="#84858C"/>
<path d="M258.575 20.1094V21H252.991V20.2207L255.786 17.1094C256.13 16.7266 256.395 16.4023 256.583 16.1367C256.774 15.8672 256.907 15.627 256.981 15.416C257.059 15.2012 257.098 14.9824 257.098 14.7598C257.098 14.4785 257.04 14.2246 256.923 13.998C256.809 13.7676 256.641 13.584 256.419 13.4473C256.196 13.3105 255.927 13.2422 255.61 13.2422C255.231 13.2422 254.915 13.3164 254.661 13.4648C254.411 13.6094 254.223 13.8125 254.098 14.0742C253.973 14.3359 253.911 14.6367 253.911 14.9766H252.827C252.827 14.4961 252.932 14.0566 253.143 13.6582C253.354 13.2598 253.667 12.9434 254.081 12.709C254.495 12.4707 255.005 12.3516 255.61 12.3516C256.149 12.3516 256.61 12.4473 256.993 12.6387C257.376 12.8262 257.669 13.0918 257.872 13.4355C258.079 13.7754 258.182 14.1738 258.182 14.6309C258.182 14.8809 258.139 15.1348 258.053 15.3926C257.971 15.6465 257.856 15.9004 257.708 16.1543C257.563 16.4082 257.393 16.6582 257.198 16.9043C257.007 17.1504 256.802 17.3926 256.583 17.6309L254.298 20.1094H258.575ZM260.813 20.0918H260.925C261.55 20.0918 262.057 20.0039 262.448 19.8281C262.839 19.6523 263.139 19.416 263.35 19.1191C263.561 18.8223 263.706 18.4883 263.784 18.1172C263.862 17.7422 263.901 17.3574 263.901 16.9629V15.6562C263.901 15.2695 263.856 14.9258 263.766 14.625C263.68 14.3242 263.559 14.0723 263.403 13.8691C263.251 13.666 263.077 13.5117 262.882 13.4062C262.686 13.3008 262.479 13.248 262.26 13.248C262.01 13.248 261.786 13.2988 261.587 13.4004C261.391 13.498 261.225 13.6367 261.089 13.8164C260.956 13.9961 260.854 14.207 260.784 14.4492C260.714 14.6914 260.678 14.9551 260.678 15.2402C260.678 15.4941 260.71 15.7402 260.772 15.9785C260.835 16.2168 260.93 16.4316 261.059 16.623C261.188 16.8145 261.348 16.9668 261.54 17.0801C261.735 17.1895 261.964 17.2441 262.225 17.2441C262.468 17.2441 262.694 17.1973 262.905 17.1035C263.12 17.0059 263.309 16.875 263.473 16.7109C263.641 16.543 263.774 16.3535 263.872 16.1426C263.973 15.9316 264.032 15.7109 264.048 15.4805H264.563C264.563 15.8047 264.499 16.125 264.37 16.4414C264.245 16.7539 264.069 17.0391 263.843 17.2969C263.616 17.5547 263.35 17.7617 263.046 17.918C262.741 18.0703 262.409 18.1465 262.05 18.1465C261.628 18.1465 261.262 18.0645 260.954 17.9004C260.645 17.7363 260.391 17.5176 260.192 17.2441C259.997 16.9707 259.85 16.666 259.753 16.3301C259.659 15.9902 259.612 15.6465 259.612 15.2988C259.612 14.8926 259.669 14.5117 259.782 14.1562C259.895 13.8008 260.063 13.4883 260.286 13.2188C260.509 12.9453 260.784 12.7324 261.112 12.5801C261.444 12.4277 261.827 12.3516 262.26 12.3516C262.749 12.3516 263.165 12.4492 263.509 12.6445C263.852 12.8398 264.132 13.1016 264.346 13.4297C264.565 13.7578 264.725 14.127 264.827 14.5371C264.928 14.9473 264.979 15.3691 264.979 15.8027V16.1953C264.979 16.6367 264.95 17.0859 264.891 17.543C264.837 17.9961 264.729 18.4297 264.569 18.8438C264.413 19.2578 264.184 19.6289 263.884 19.957C263.583 20.2812 263.19 20.5391 262.706 20.7305C262.225 20.918 261.632 21.0117 260.925 21.0117H260.813V20.0918ZM267.864 16.104C267.248 16.104 266.784 15.876 266.472 15.42C266.16 14.956 266.004 14.292 266.004 13.428C266.004 12.58 266.152 11.928 266.448 11.472C266.744 11.008 267.216 10.776 267.864 10.776C268.48 10.776 268.944 11.004 269.256 11.46C269.576 11.916 269.736 12.572 269.736 13.428C269.736 14.276 269.588 14.936 269.292 15.408C269.004 15.872 268.528 16.104 267.864 16.104ZM267.864 15.348C268.216 15.348 268.472 15.192 268.632 14.88C268.792 14.56 268.872 14.076 268.872 13.428C268.872 12.788 268.792 12.312 268.632 12C268.472 11.68 268.216 11.52 267.864 11.52C267.52 11.52 267.268 11.68 267.108 12C266.956 12.312 266.88 12.792 266.88 13.44C266.88 14.072 266.956 14.548 267.108 14.868C267.268 15.188 267.52 15.348 267.864 15.348Z" fill="#84858C"/>
<path d="M317.127 20.1094V21H311.543V20.2207L314.338 17.1094C314.682 16.7266 314.948 16.4023 315.135 16.1367C315.327 15.8672 315.459 15.627 315.534 15.416C315.612 15.2012 315.651 14.9824 315.651 14.7598C315.651 14.4785 315.592 14.2246 315.475 13.998C315.362 13.7676 315.194 13.584 314.971 13.4473C314.749 13.3105 314.479 13.2422 314.163 13.2422C313.784 13.2422 313.467 13.3164 313.213 13.4648C312.963 13.6094 312.776 13.8125 312.651 14.0742C312.526 14.3359 312.463 14.6367 312.463 14.9766H311.379C311.379 14.4961 311.485 14.0566 311.696 13.6582C311.907 13.2598 312.219 12.9434 312.633 12.709C313.047 12.4707 313.557 12.3516 314.163 12.3516C314.702 12.3516 315.163 12.4473 315.545 12.6387C315.928 12.8262 316.221 13.0918 316.424 13.4355C316.631 13.7754 316.735 14.1738 316.735 14.6309C316.735 14.8809 316.692 15.1348 316.606 15.3926C316.524 15.6465 316.409 15.9004 316.26 16.1543C316.116 16.4082 315.946 16.6582 315.75 16.9043C315.559 17.1504 315.354 17.3926 315.135 17.6309L312.85 20.1094H317.127ZM319.366 20.0918H319.477C320.102 20.0918 320.61 20.0039 321 19.8281C321.391 19.6523 321.692 19.416 321.903 19.1191C322.114 18.8223 322.258 18.4883 322.336 18.1172C322.415 17.7422 322.454 17.3574 322.454 16.9629V15.6562C322.454 15.2695 322.409 14.9258 322.319 14.625C322.233 14.3242 322.112 14.0723 321.956 13.8691C321.803 13.666 321.629 13.5117 321.434 13.4062C321.239 13.3008 321.032 13.248 320.813 13.248C320.563 13.248 320.338 13.2988 320.139 13.4004C319.944 13.498 319.778 13.6367 319.641 13.8164C319.508 13.9961 319.407 14.207 319.336 14.4492C319.266 14.6914 319.231 14.9551 319.231 15.2402C319.231 15.4941 319.262 15.7402 319.325 15.9785C319.387 16.2168 319.483 16.4316 319.612 16.623C319.741 16.8145 319.901 16.9668 320.092 17.0801C320.288 17.1895 320.516 17.2441 320.778 17.2441C321.02 17.2441 321.247 17.1973 321.458 17.1035C321.672 17.0059 321.862 16.875 322.026 16.7109C322.194 16.543 322.327 16.3535 322.424 16.1426C322.526 15.9316 322.584 15.7109 322.6 15.4805H323.116C323.116 15.8047 323.051 16.125 322.922 16.4414C322.797 16.7539 322.622 17.0391 322.395 17.2969C322.168 17.5547 321.903 17.7617 321.598 17.918C321.293 18.0703 320.961 18.1465 320.602 18.1465C320.18 18.1465 319.815 18.0645 319.506 17.9004C319.198 17.7363 318.944 17.5176 318.745 17.2441C318.549 16.9707 318.403 16.666 318.305 16.3301C318.211 15.9902 318.165 15.6465 318.165 15.2988C318.165 14.8926 318.221 14.5117 318.334 14.1562C318.448 13.8008 318.616 13.4883 318.838 13.2188C319.061 12.9453 319.336 12.7324 319.665 12.5801C319.997 12.4277 320.379 12.3516 320.813 12.3516C321.301 12.3516 321.717 12.4492 322.061 12.6445C322.405 12.8398 322.684 13.1016 322.899 13.4297C323.118 13.7578 323.278 14.127 323.379 14.5371C323.481 14.9473 323.532 15.3691 323.532 15.8027V16.1953C323.532 16.6367 323.502 17.0859 323.444 17.543C323.389 17.9961 323.282 18.4297 323.122 18.8438C322.965 19.2578 322.737 19.6289 322.436 19.957C322.135 20.2812 321.743 20.5391 321.258 20.7305C320.778 20.918 320.184 21.0117 319.477 21.0117H319.366V20.0918ZM326.417 16.104C325.801 16.104 325.337 15.876 325.025 15.42C324.713 14.956 324.557 14.292 324.557 13.428C324.557 12.58 324.705 11.928 325.001 11.472C325.297 11.008 325.769 10.776 326.417 10.776C327.033 10.776 327.497 11.004 327.809 11.46C328.129 11.916 328.289 12.572 328.289 13.428C328.289 14.276 328.141 14.936 327.845 15.408C327.557 15.872 327.081 16.104 326.417 16.104ZM326.417 15.348C326.769 15.348 327.025 15.192 327.185 14.88C327.345 14.56 327.425 14.076 327.425 13.428C327.425 12.788 327.345 12.312 327.185 12C327.025 11.68 326.769 11.52 326.417 11.52C326.073 11.52 325.821 11.68 325.661 12C325.509 12.312 325.433 12.792 325.433 13.44C325.433 14.072 325.509 14.548 325.661 14.868C325.821 15.188 326.073 15.348 326.417 15.348Z" fill="#84858C"/>
<path d="M375.68 21.1094V22H370.096V21.2207L372.891 18.1094C373.234 17.7266 373.5 17.4023 373.688 17.1367C373.879 16.8672 374.012 16.627 374.086 16.416C374.164 16.2012 374.203 15.9824 374.203 15.7598C374.203 15.4785 374.145 15.2246 374.027 14.998C373.914 14.7676 373.746 14.584 373.523 14.4473C373.301 14.3105 373.031 14.2422 372.715 14.2422C372.336 14.2422 372.02 14.3164 371.766 14.4648C371.516 14.6094 371.328 14.8125 371.203 15.0742C371.078 15.3359 371.016 15.6367 371.016 15.9766H369.932C369.932 15.4961 370.037 15.0566 370.248 14.6582C370.459 14.2598 370.771 13.9434 371.186 13.709C371.6 13.4707 372.109 13.3516 372.715 13.3516C373.254 13.3516 373.715 13.4473 374.098 13.6387C374.48 13.8262 374.773 14.0918 374.977 14.4355C375.184 14.7754 375.287 15.1738 375.287 15.6309C375.287 15.8809 375.244 16.1348 375.158 16.3926C375.076 16.6465 374.961 16.9004 374.812 17.1543C374.668 17.4082 374.498 17.6582 374.303 17.9043C374.111 18.1504 373.906 18.3926 373.688 18.6309L371.402 21.1094H375.68ZM377.918 21.0918H378.029C378.654 21.0918 379.162 21.0039 379.553 20.8281C379.943 20.6523 380.244 20.416 380.455 20.1191C380.666 19.8223 380.811 19.4883 380.889 19.1172C380.967 18.7422 381.006 18.3574 381.006 17.9629V16.6562C381.006 16.2695 380.961 15.9258 380.871 15.625C380.785 15.3242 380.664 15.0723 380.508 14.8691C380.355 14.666 380.182 14.5117 379.986 14.4062C379.791 14.3008 379.584 14.248 379.365 14.248C379.115 14.248 378.891 14.2988 378.691 14.4004C378.496 14.498 378.33 14.6367 378.193 14.8164C378.061 14.9961 377.959 15.207 377.889 15.4492C377.818 15.6914 377.783 15.9551 377.783 16.2402C377.783 16.4941 377.814 16.7402 377.877 16.9785C377.939 17.2168 378.035 17.4316 378.164 17.623C378.293 17.8145 378.453 17.9668 378.645 18.0801C378.84 18.1895 379.068 18.2441 379.33 18.2441C379.572 18.2441 379.799 18.1973 380.01 18.1035C380.225 18.0059 380.414 17.875 380.578 17.7109C380.746 17.543 380.879 17.3535 380.977 17.1426C381.078 16.9316 381.137 16.7109 381.152 16.4805H381.668C381.668 16.8047 381.604 17.125 381.475 17.4414C381.35 17.7539 381.174 18.0391 380.947 18.2969C380.721 18.5547 380.455 18.7617 380.15 18.918C379.846 19.0703 379.514 19.1465 379.154 19.1465C378.732 19.1465 378.367 19.0645 378.059 18.9004C377.75 18.7363 377.496 18.5176 377.297 18.2441C377.102 17.9707 376.955 17.666 376.857 17.3301C376.764 16.9902 376.717 16.6465 376.717 16.2988C376.717 15.8926 376.773 15.5117 376.887 15.1562C377 14.8008 377.168 14.4883 377.391 14.2188C377.613 13.9453 377.889 13.7324 378.217 13.5801C378.549 13.4277 378.932 13.3516 379.365 13.3516C379.854 13.3516 380.27 13.4492 380.613 13.6445C380.957 13.8398 381.236 14.1016 381.451 14.4297C381.67 14.7578 381.83 15.127 381.932 15.5371C382.033 15.9473 382.084 16.3691 382.084 16.8027V17.1953C382.084 17.6367 382.055 18.0859 381.996 18.543C381.941 18.9961 381.834 19.4297 381.674 19.8438C381.518 20.2578 381.289 20.6289 380.988 20.957C380.688 21.2812 380.295 21.5391 379.811 21.7305C379.33 21.918 378.736 22.0117 378.029 22.0117H377.918V21.0918ZM384.969 17.104C384.353 17.104 383.889 16.876 383.577 16.42C383.265 15.956 383.109 15.292 383.109 14.428C383.109 13.58 383.257 12.928 383.553 12.472C383.849 12.008 384.321 11.776 384.969 11.776C385.585 11.776 386.049 12.004 386.361 12.46C386.681 12.916 386.841 13.572 386.841 14.428C386.841 15.276 386.693 15.936 386.397 16.408C386.109 16.872 385.633 17.104 384.969 17.104ZM384.969 16.348C385.321 16.348 385.577 16.192 385.737 15.88C385.897 15.56 385.977 15.076 385.977 14.428C385.977 13.788 385.897 13.312 385.737 13C385.577 12.68 385.321 12.52 384.969 12.52C384.625 12.52 384.373 12.68 384.213 13C384.061 13.312 383.985 13.792 383.985 14.44C383.985 15.072 384.061 15.548 384.213 15.868C384.373 16.188 384.625 16.348 384.969 16.348Z" fill="#84858C"/>
<path d="M434.232 17.1094V18H428.648V17.2207L431.443 14.1094C431.787 13.7266 432.052 13.4023 432.24 13.1367C432.431 12.8672 432.564 12.627 432.638 12.416C432.717 12.2012 432.756 11.9824 432.756 11.7598C432.756 11.4785 432.697 11.2246 432.58 10.998C432.467 10.7676 432.299 10.584 432.076 10.4473C431.853 10.3105 431.584 10.2422 431.267 10.2422C430.888 10.2422 430.572 10.3164 430.318 10.4648C430.068 10.6094 429.881 10.8125 429.756 11.0742C429.631 11.3359 429.568 11.6367 429.568 11.9766H428.484C428.484 11.4961 428.59 11.0566 428.801 10.6582C429.011 10.2598 429.324 9.94336 429.738 9.70898C430.152 9.4707 430.662 9.35156 431.267 9.35156C431.806 9.35156 432.267 9.44727 432.65 9.63867C433.033 9.82617 433.326 10.0918 433.529 10.4355C433.736 10.7754 433.84 11.1738 433.84 11.6309C433.84 11.8809 433.797 12.1348 433.711 12.3926C433.629 12.6465 433.513 12.9004 433.365 13.1543C433.22 13.4082 433.051 13.6582 432.855 13.9043C432.664 14.1504 432.459 14.3926 432.24 14.6309L429.955 17.1094H434.232ZM436.47 17.0918H436.582C437.207 17.0918 437.715 17.0039 438.105 16.8281C438.496 16.6523 438.797 16.416 439.008 16.1191C439.219 15.8223 439.363 15.4883 439.441 15.1172C439.519 14.7422 439.558 14.3574 439.558 13.9629V12.6562C439.558 12.2695 439.513 11.9258 439.424 11.625C439.338 11.3242 439.217 11.0723 439.06 10.8691C438.908 10.666 438.734 10.5117 438.539 10.4062C438.344 10.3008 438.136 10.248 437.918 10.248C437.668 10.248 437.443 10.2988 437.244 10.4004C437.049 10.498 436.883 10.6367 436.746 10.8164C436.613 10.9961 436.511 11.207 436.441 11.4492C436.371 11.6914 436.336 11.9551 436.336 12.2402C436.336 12.4941 436.367 12.7402 436.429 12.9785C436.492 13.2168 436.588 13.4316 436.717 13.623C436.845 13.8145 437.006 13.9668 437.197 14.0801C437.392 14.1895 437.621 14.2441 437.883 14.2441C438.125 14.2441 438.351 14.1973 438.562 14.1035C438.777 14.0059 438.967 13.875 439.131 13.7109C439.299 13.543 439.431 13.3535 439.529 13.1426C439.631 12.9316 439.689 12.7109 439.705 12.4805H440.22C440.22 12.8047 440.156 13.125 440.027 13.4414C439.902 13.7539 439.726 14.0391 439.5 14.2969C439.273 14.5547 439.008 14.7617 438.703 14.918C438.398 15.0703 438.066 15.1465 437.707 15.1465C437.285 15.1465 436.92 15.0645 436.611 14.9004C436.302 14.7363 436.049 14.5176 435.849 14.2441C435.654 13.9707 435.508 13.666 435.41 13.3301C435.316 12.9902 435.269 12.6465 435.269 12.2988C435.269 11.8926 435.326 11.5117 435.439 11.1562C435.552 10.8008 435.72 10.4883 435.943 10.2188C436.166 9.94531 436.441 9.73242 436.769 9.58008C437.101 9.42773 437.484 9.35156 437.918 9.35156C438.406 9.35156 438.822 9.44922 439.166 9.64453C439.51 9.83984 439.789 10.1016 440.004 10.4297C440.222 10.7578 440.383 11.127 440.484 11.5371C440.586 11.9473 440.636 12.3691 440.636 12.8027V13.1953C440.636 13.6367 440.607 14.0859 440.549 14.543C440.494 14.9961 440.386 15.4297 440.226 15.8438C440.07 16.2578 439.842 16.6289 439.541 16.957C439.24 17.2812 438.847 17.5391 438.363 17.7305C437.883 17.918 437.289 18.0117 436.582 18.0117H436.47V17.0918ZM443.521 13.104C442.905 13.104 442.441 12.876 442.129 12.42C441.817 11.956 441.661 11.292 441.661 10.428C441.661 9.58 441.809 8.928 442.105 8.472C442.401 8.008 442.873 7.776 443.521 7.776C444.137 7.776 444.601 8.004 444.913 8.46C445.233 8.916 445.393 9.572 445.393 10.428C445.393 11.276 445.245 11.936 444.949 12.408C444.661 12.872 444.185 13.104 443.521 13.104ZM443.521 12.348C443.873 12.348 444.129 12.192 444.289 11.88C444.449 11.56 444.529 11.076 444.529 10.428C444.529 9.788 444.449 9.312 444.289 9C444.129 8.68 443.873 8.52 443.521 8.52C443.177 8.52 442.925 8.68 442.765 9C442.613 9.312 442.537 9.792 442.537 10.44C442.537 11.072 442.613 11.548 442.765 11.868C442.925 12.188 443.177 12.348 443.521 12.348Z" fill="#84858C"/>
<path d="M0 27.2692L51.5556 29.6923L103.111 24.8462L154.667 20L206.222 34.5385L257.778 24.8462H309.333L360.889 29.6923L412.444 22.4231H464V83H412.444H360.889H309.333H257.778H206.222H154.667H103.111H51.5556H0V27.2692Z" fill="#F2C94C" fill-opacity="0.2"/>
</svg>
