<svg width="128" height="128" viewBox="0 0 128 128" fill="none" xmlns="http://www.w3.org/2000/svg">
<path d="M46.8717 66.6318C46.8717 65.7731 47.5678 65.0769 48.4265 65.0769C49.2852 65.0769 49.9814 65.7731 49.9814 66.6318V72.2469L52.6952 69.8346C53.3324 69.2681 54.3149 69.3195 54.8895 69.9495C55.464 70.5795 55.4132 71.5495 54.7759 72.116L49.9814 76.3779V83.3408L56.4147 79.6739L57.6685 73.8506C57.8472 73.0208 58.6729 72.491 59.5128 72.6672C60.3528 72.8435 60.8889 73.6591 60.7102 74.4888L60.0386 77.6084L64.5897 75.0143C65.3286 74.5931 66.2757 74.8469 66.705 75.5811C67.1344 76.3152 66.8835 77.2518 66.1446 77.673L61.224 80.4776L64.6427 81.5742C65.4599 81.8363 65.9073 82.7025 65.6419 83.5087C65.3766 84.315 64.499 84.7561 63.6817 84.4939L57.6001 82.5431L51.6523 85.9332L58.0694 89.5908L63.7531 87.7677C64.5703 87.5055 65.4479 87.9466 65.7133 88.7529C65.9787 89.5591 65.5313 90.4252 64.714 90.6874L61.6932 91.6564L66.213 94.2325C66.9519 94.6537 67.2029 95.5903 66.7735 96.3245C66.3442 97.0586 65.3971 97.3124 64.6582 96.8912L59.7065 94.0688L60.465 97.592C60.6437 98.4218 60.1076 99.2374 59.2677 99.4136C58.4277 99.5899 57.602 99.0601 57.4233 98.2303L56.0826 92.0033L49.9814 88.5257V95.9842L54.4649 99.9697C55.1022 100.536 55.1531 101.506 54.5785 102.136C54.0039 102.766 53.0215 102.818 52.3842 102.251L49.9814 100.115V105.274C49.9814 106.132 49.2852 106.828 48.4265 106.828C47.5678 106.828 46.8717 106.132 46.8717 105.274V99.6943L44.1981 102.071C43.5608 102.637 42.5783 102.586 42.0038 101.956C41.4292 101.326 41.48 100.356 42.1173 99.7894L46.8717 95.5632V88.6581L40.3383 92.382L39.0959 98.1527C38.9172 98.9825 38.0915 99.5122 37.2515 99.336C36.4116 99.1597 35.8755 98.3442 36.0541 97.5144L36.7145 94.4475L32.1949 97.0236C31.456 97.4447 30.5089 97.191 30.0795 96.4568C29.6502 95.7226 29.9011 94.786 30.64 94.3649L35.5919 91.5424L32.1217 90.4293C31.3045 90.1671 30.8571 89.301 31.1224 88.4948C31.3878 87.6885 32.2654 87.2474 33.0826 87.5096L39.2158 89.4769L45.433 85.9332L38.8833 82.2001L33.1484 84.0397C32.3311 84.3019 31.4535 83.8608 31.1882 83.0545C30.9228 82.2483 31.3702 81.3822 32.1874 81.12L35.2595 80.1346L30.7085 77.5406C29.9696 77.1195 29.7187 76.1829 30.148 75.4487C30.5774 74.7145 31.5244 74.4608 32.2633 74.882L37.1838 77.6865L36.4364 74.2154C36.2578 73.3856 36.7939 72.5701 37.6338 72.3938C38.4737 72.2176 39.2995 72.7474 39.4781 73.5771L40.8076 79.752L46.8717 83.2084V75.8853L42.4283 71.9355C41.791 71.369 41.7402 70.3991 42.3148 69.7691C42.8893 69.1391 43.8718 69.0876 44.5091 69.6541L46.8717 71.7543V66.6318Z" fill="#64D2FF"/>
<path d="M69.0954 92.9112C68.8252 92.6355 68.5123 92.3922 68.1592 92.1917L68.0136 92.109C68.9578 91.0292 69.3378 89.4955 68.8471 88.0102C68.5913 87.2359 68.1366 86.5899 67.5606 86.1046C68.1016 85.627 68.5284 85.0036 68.7732 84.2627C69.3012 82.6645 68.8211 81.0104 67.7149 79.9258L68.0882 79.7138C70.1381 78.5498 70.8366 75.9427 69.6432 73.9098C68.4649 71.9026 65.884 71.2111 63.8601 72.3604L63.6296 72.4912C63.1701 71.0858 61.9819 69.9707 60.4508 69.6506C59.6529 69.4838 58.8523 69.5519 58.1284 69.8116C57.9996 69.0324 57.6502 68.2796 57.0751 67.6514C55.9331 66.404 54.212 65.9889 52.6876 66.4468V66.0245C52.6876 63.6711 50.7798 61.7633 48.4264 61.7633C46.073 61.7633 44.1652 63.6711 44.1652 66.0245V66.1687C42.7368 65.8734 41.1933 66.3162 40.1412 67.4653C39.5832 68.0748 39.2377 68.8015 39.1 69.556C38.3575 69.2747 37.5304 69.1963 36.7062 69.3687C35.0771 69.7092 33.8362 70.9498 33.4482 72.4824L32.9927 72.2238C30.9687 71.0746 28.3879 71.766 27.2096 73.7732C26.0161 75.8062 26.7146 78.4133 28.7646 79.5773L28.917 79.6638C27.9526 80.7453 27.5603 82.2943 28.0558 83.7941C28.3191 84.591 28.793 85.252 29.3931 85.7418C28.7608 86.2366 28.2609 86.9171 27.9877 87.7439C27.4549 89.3568 27.9488 91.0267 29.0768 92.1106L28.6936 92.3282C28.6144 92.3732 28.5373 92.4203 28.4622 92.4694C16.8105 90.2595 8 80.0225 8 67.7278C8 53.8194 19.275 42.5444 33.1834 42.5444C36.1992 42.5444 39.0912 43.0745 41.7712 44.0466C47.059 31.1128 59.767 22 74.6035 22C94.1851 22 110.059 37.874 110.059 57.4556C110.059 58.3182 110.028 59.1737 109.968 60.0208C115.889 62.7474 120 68.7339 120 75.6805C120 85.1968 112.286 92.9112 102.769 92.9112H69.0954Z" fill="white"/>
</svg>
