<svg width="20" height="15" viewBox="0 0 20 15" fill="none" xmlns="http://www.w3.org/2000/svg">
<g id="Email">
<path id="Vector" d="M18.3334 2.94962V11.2829C18.3334 11.8355 18.1139 12.3654 17.7232 12.7561C17.3325 13.1468 16.8026 13.3663 16.2501 13.3663H3.75008C3.19755 13.3663 2.66764 13.1468 2.27694 12.7561C1.88624 12.3654 1.66675 11.8355 1.66675 11.2829V2.94962" stroke="#4D4D51" stroke-width="1.4" stroke-linecap="round" stroke-linejoin="round"/>
<path id="Vector_2" d="M18.3334 2.94961C18.3334 2.39707 18.1139 1.86717 17.7232 1.47647C17.3325 1.08577 16.8026 0.866272 16.2501 0.866272H3.75008C3.19755 0.866272 2.66764 1.08577 2.27694 1.47647C1.88624 1.86717 1.66675 2.39707 1.66675 2.94961L8.89591 7.46349C9.22702 7.67044 9.60962 7.78017 10.0001 7.78017C10.3905 7.78017 10.7731 7.67044 11.1042 7.46349L18.3334 2.94961Z" stroke="#4D4D51" stroke-width="1.4" stroke-linecap="round" stroke-linejoin="round"/>
</g>
</svg>
