<svg width="20" height="15" viewBox="0 0 20 15" fill="none" xmlns="http://www.w3.org/2000/svg">
<g id="Email">
<path id="Vector" d="M18.3334 2.94946V11.2828C18.3334 11.8353 18.1139 12.3652 17.7232 12.7559C17.3325 13.1466 16.8026 13.3661 16.25 13.3661H3.75002C3.19749 13.3661 2.66758 13.1466 2.27688 12.7559C1.88618 12.3652 1.66669 11.8353 1.66669 11.2828V2.94946" stroke="#202022" stroke-width="1.4" stroke-linecap="round" stroke-linejoin="round"/>
<path id="Vector_2" d="M18.3334 2.94954C18.3334 2.39701 18.1139 1.86711 17.7232 1.47641C17.3325 1.0857 16.8026 0.866211 16.25 0.866211H3.75002C3.19749 0.866211 2.66758 1.0857 2.27688 1.47641C1.88618 1.86711 1.66669 2.39701 1.66669 2.94954L8.89585 7.46343C9.22696 7.67038 9.60956 7.7801 10 7.7801C10.3905 7.7801 10.7731 7.67038 11.1042 7.46343L18.3334 2.94954Z" stroke="#202022" stroke-width="1.4" stroke-linecap="round" stroke-linejoin="round"/>
</g>
</svg>
