<svg width="16" height="19" viewBox="0 0 16 19" fill="none" xmlns="http://www.w3.org/2000/svg">
<g id="Mark">
<path id="Vector" d="M14.8609 8.65592C14.8609 14.0348 9.35174 17.3485 8.20685 17.9797C8.14342 18.0147 8.07217 18.033 7.99974 18.033C7.9273 18.033 7.85605 18.0147 7.79263 17.9797C6.64688 17.3485 1.1394 14.0348 1.1394 8.65592C1.1394 4.36795 3.71219 1.36636 8.00016 1.36636C12.2881 1.36636 14.8609 4.36795 14.8609 8.65592Z" stroke="#4D4D51" stroke-width="1.4" stroke-linecap="round" stroke-linejoin="round"/>
<path id="Vector_2" d="M4.56982 8.22713C4.56982 9.13693 4.93124 10.0095 5.57456 10.6528C6.21788 11.2961 7.09041 11.6575 8.0002 11.6575C8.91 11.6575 9.78253 11.2961 10.4258 10.6528C11.0692 10.0095 11.4306 9.13693 11.4306 8.22713C11.4306 7.31734 11.0692 6.44481 10.4258 5.80149C9.78253 5.15817 8.91 4.79675 8.0002 4.79675C7.09041 4.79675 6.21788 5.15817 5.57456 5.80149C4.93124 6.44481 4.56982 7.31734 4.56982 8.22713V8.22713Z" stroke="#4D4D51" stroke-width="1.4" stroke-linecap="round" stroke-linejoin="round"/>
</g>
</svg>
