<svg width="20" height="19" viewBox="0 0 20 19" fill="none" xmlns="http://www.w3.org/2000/svg">
<g id="Phone">
<path id="Vector" d="M12.2517 16.8852L12.2608 16.8915C13.0478 17.3927 13.9823 17.6103 14.9097 17.5084C15.8372 17.4066 16.7022 16.9913 17.3617 16.3314L17.9346 15.7584C18.0616 15.6315 18.1623 15.4809 18.231 15.315C18.2998 15.1492 18.3351 14.9715 18.3351 14.792C18.3351 14.6125 18.2998 14.4347 18.231 14.2689C18.1623 14.1031 18.0616 13.9524 17.9346 13.8255L15.5181 11.4108C15.3912 11.2838 15.2405 11.1831 15.0747 11.1144C14.9089 11.0457 14.7311 11.0103 14.5516 11.0103C14.3721 11.0103 14.1944 11.0457 14.0286 11.1144C13.8627 11.1831 13.7121 11.2838 13.5852 11.4108C13.329 11.6669 12.9815 11.8108 12.6192 11.8108C12.2569 11.8108 11.9094 11.6669 11.6532 11.4108L7.78926 7.54592C7.53311 7.2897 7.38922 6.94223 7.38922 6.57993C7.38922 6.21763 7.53311 5.87017 7.78926 5.61394C7.91623 5.48706 8.01695 5.3364 8.08566 5.17057C8.15438 5.00474 8.18975 4.827 8.18975 4.6475C8.18975 4.468 8.15438 4.29026 8.08566 4.12443C8.01695 3.9586 7.91623 3.80794 7.78926 3.68105L5.3736 1.26631C5.11738 1.01017 4.76991 0.866272 4.40762 0.866272C4.04532 0.866272 3.69785 1.01017 3.44163 1.26631L2.86777 1.83926C2.20792 2.4989 1.79286 3.36391 1.69117 4.29137C1.58948 5.21884 1.80725 6.15324 2.30849 6.94018L2.31396 6.94929C4.96114 10.8659 8.33458 14.2387 12.2517 16.8852V16.8852Z" stroke="#4D4D51" stroke-width="1.4" stroke-linecap="round" stroke-linejoin="round"/>
</g>
</svg>
